<svg width="1440" height="1024" viewBox="0 0 1440 1024" fill="none" xmlns="http://www.w3.org/2000/svg">
<rect width="1440" height="1024" fill="#E5E5E5"/>
<g clip-path="url(#clip0)">
<rect width="1440" height="1024" fill="white"/>
<rect width="1440" height="199" fill="#4DDFFF"/>
<rect x="-1" y="825" width="1440" height="199" fill="#4DDFFF"/>
<path d="M81.1094 917.789H75.625V933H73.3867V917.789H67.9141V915.938H81.1094V917.789ZM85.4688 921.855C86.4297 920.676 87.6797 920.086 89.2188 920.086C91.8984 920.086 93.25 921.598 93.2734 924.621V933H91.1055V924.609C91.0977 923.695 90.8867 923.02 90.4727 922.582C90.0664 922.145 89.4297 921.926 88.5625 921.926C87.8594 921.926 87.2422 922.113 86.7109 922.488C86.1797 922.863 85.7656 923.355 85.4688 923.965V933H83.3008V915H85.4688V921.855ZM95.9453 926.543C95.9453 925.301 96.1875 924.184 96.6719 923.191C97.1641 922.199 97.8438 921.434 98.7109 920.895C99.5859 920.355 100.582 920.086 101.699 920.086C103.426 920.086 104.82 920.684 105.883 921.879C106.953 923.074 107.488 924.664 107.488 926.648V926.801C107.488 928.035 107.25 929.145 106.773 930.129C106.305 931.105 105.629 931.867 104.746 932.414C103.871 932.961 102.863 933.234 101.723 933.234C100.004 933.234 98.6094 932.637 97.5391 931.441C96.4766 930.246 95.9453 928.664 95.9453 926.695V926.543ZM98.125 926.801C98.125 928.207 98.4492 929.336 99.0977 930.188C99.7539 931.039 100.629 931.465 101.723 931.465C102.824 931.465 103.699 931.035 104.348 930.176C104.996 929.309 105.32 928.098 105.32 926.543C105.32 925.152 104.988 924.027 104.324 923.168C103.668 922.301 102.793 921.867 101.699 921.867C100.629 921.867 99.7656 922.293 99.1094 923.145C98.4531 923.996 98.125 925.215 98.125 926.801ZM105.168 918.211V918.328H103.375L101.617 916.336L99.8711 918.328H98.0781V918.188L100.961 915H102.273L105.168 918.211ZM112.258 920.32L112.328 921.914C113.297 920.695 114.562 920.086 116.125 920.086C118.805 920.086 120.156 921.598 120.18 924.621V933H118.012V924.609C118.004 923.695 117.793 923.02 117.379 922.582C116.973 922.145 116.336 921.926 115.469 921.926C114.766 921.926 114.148 922.113 113.617 922.488C113.086 922.863 112.672 923.355 112.375 923.965V933H110.207V920.32H112.258ZM122.934 926.555C122.934 924.578 123.391 923.008 124.305 921.844C125.219 920.672 126.43 920.086 127.938 920.086C129.484 920.086 130.691 920.633 131.559 921.727L131.664 920.32H133.645V932.695C133.645 934.336 133.156 935.629 132.18 936.574C131.211 937.52 129.906 937.992 128.266 937.992C127.352 937.992 126.457 937.797 125.582 937.406C124.707 937.016 124.039 936.48 123.578 935.801L124.703 934.5C125.633 935.648 126.77 936.223 128.113 936.223C129.168 936.223 129.988 935.926 130.574 935.332C131.168 934.738 131.465 933.902 131.465 932.824V931.734C130.598 932.734 129.414 933.234 127.914 933.234C126.43 933.234 125.227 932.637 124.305 931.441C123.391 930.246 122.934 928.617 122.934 926.555ZM125.113 926.801C125.113 928.23 125.406 929.355 125.992 930.176C126.578 930.988 127.398 931.395 128.453 931.395C129.82 931.395 130.824 930.773 131.465 929.531V923.742C130.801 922.531 129.805 921.926 128.477 921.926C127.422 921.926 126.598 922.336 126.004 923.156C125.41 923.977 125.113 925.191 125.113 926.801ZM145.82 917.25V920.32H148.188V921.996H145.82V929.859C145.82 930.367 145.926 930.75 146.137 931.008C146.348 931.258 146.707 931.383 147.215 931.383C147.465 931.383 147.809 931.336 148.246 931.242V933C147.676 933.156 147.121 933.234 146.582 933.234C145.613 933.234 144.883 932.941 144.391 932.355C143.898 931.77 143.652 930.938 143.652 929.859V921.996H141.344V920.32H143.652V917.25H145.82ZM153.086 933H150.918V920.32H153.086V933ZM150.742 916.957C150.742 916.605 150.848 916.309 151.059 916.066C151.277 915.824 151.598 915.703 152.02 915.703C152.441 915.703 152.762 915.824 152.98 916.066C153.199 916.309 153.309 916.605 153.309 916.957C153.309 917.309 153.199 917.602 152.98 917.836C152.762 918.07 152.441 918.188 152.02 918.188C151.598 918.188 151.277 918.07 151.059 917.836C150.848 917.602 150.742 917.309 150.742 916.957ZM158.617 920.32L158.688 921.914C159.656 920.695 160.922 920.086 162.484 920.086C165.164 920.086 166.516 921.598 166.539 924.621V933H164.371V924.609C164.363 923.695 164.152 923.02 163.738 922.582C163.332 922.145 162.695 921.926 161.828 921.926C161.125 921.926 160.508 922.113 159.977 922.488C159.445 922.863 159.031 923.355 158.734 923.965V933H156.566V920.32H158.617ZM178.117 933H175.949V915H178.117V933ZM183.953 933H181.785V920.32H183.953V933ZM181.609 916.957C181.609 916.605 181.715 916.309 181.926 916.066C182.145 915.824 182.465 915.703 182.887 915.703C183.309 915.703 183.629 915.824 183.848 916.066C184.066 916.309 184.176 916.605 184.176 916.957C184.176 917.309 184.066 917.602 183.848 917.836C183.629 918.07 183.309 918.188 182.887 918.188C182.465 918.188 182.145 918.07 181.926 917.836C181.715 917.602 181.609 917.309 181.609 916.957ZM192.695 933.234C190.977 933.234 189.578 932.672 188.5 931.547C187.422 930.414 186.883 928.902 186.883 927.012V926.613C186.883 925.355 187.121 924.234 187.598 923.25C188.082 922.258 188.754 921.484 189.613 920.93C190.48 920.367 191.418 920.086 192.426 920.086C194.074 920.086 195.355 920.629 196.27 921.715C197.184 922.801 197.641 924.355 197.641 926.379V927.281H189.051C189.082 928.531 189.445 929.543 190.141 930.316C190.844 931.082 191.734 931.465 192.812 931.465C193.578 931.465 194.227 931.309 194.758 930.996C195.289 930.684 195.754 930.27 196.152 929.754L197.477 930.785C196.414 932.418 194.82 933.234 192.695 933.234ZM192.426 921.867C191.551 921.867 190.816 922.188 190.223 922.828C189.629 923.461 189.262 924.352 189.121 925.5H195.473V925.336C195.41 924.234 195.113 923.383 194.582 922.781C194.051 922.172 193.332 921.867 192.426 921.867ZM195.965 918.211V918.328H194.172L192.414 916.336L190.668 918.328H188.875V918.188L191.758 915H193.07L195.965 918.211ZM202.211 920.32L202.281 921.914C203.25 920.695 204.516 920.086 206.078 920.086C208.758 920.086 210.109 921.598 210.133 924.621V933H207.965V924.609C207.957 923.695 207.746 923.02 207.332 922.582C206.926 922.145 206.289 921.926 205.422 921.926C204.719 921.926 204.102 922.113 203.57 922.488C203.039 922.863 202.625 923.355 202.328 923.965V933H200.16V920.32H202.211ZM221.523 921.855C222.484 920.676 223.734 920.086 225.273 920.086C227.953 920.086 229.305 921.598 229.328 924.621V933H227.16V924.609C227.152 923.695 226.941 923.02 226.527 922.582C226.121 922.145 225.484 921.926 224.617 921.926C223.914 921.926 223.297 922.113 222.766 922.488C222.234 922.863 221.82 923.355 221.523 923.965V933H219.355V915H221.523V921.855ZM237.836 933.234C236.117 933.234 234.719 932.672 233.641 931.547C232.562 930.414 232.023 928.902 232.023 927.012V926.613C232.023 925.355 232.262 924.234 232.738 923.25C233.223 922.258 233.895 921.484 234.754 920.93C235.621 920.367 236.559 920.086 237.566 920.086C239.215 920.086 240.496 920.629 241.41 921.715C242.324 922.801 242.781 924.355 242.781 926.379V927.281H234.191C234.223 928.531 234.586 929.543 235.281 930.316C235.984 931.082 236.875 931.465 237.953 931.465C238.719 931.465 239.367 931.309 239.898 930.996C240.43 930.684 240.895 930.27 241.293 929.754L242.617 930.785C241.555 932.418 239.961 933.234 237.836 933.234ZM237.566 921.867C236.691 921.867 235.957 922.188 235.363 922.828C234.77 923.461 234.402 924.352 234.262 925.5H240.613V925.336C240.551 924.234 240.254 923.383 239.723 922.781C239.191 922.172 238.473 921.867 237.566 921.867ZM241.105 918.211V918.328H239.312L237.555 916.336L235.809 918.328H234.016V918.188L236.898 915H238.211L241.105 918.211ZM236.23 935.871C236.23 935.52 236.336 935.223 236.547 934.98C236.766 934.738 237.086 934.617 237.508 934.617C237.93 934.617 238.25 934.738 238.469 934.98C238.688 935.223 238.797 935.52 238.797 935.871C238.797 936.223 238.688 936.516 238.469 936.75C238.25 936.984 237.93 937.102 237.508 937.102C237.086 937.102 236.766 936.984 236.547 936.75C236.336 936.516 236.23 936.223 236.23 935.871Z" fill="black"/>
<path d="M1114.85 939H1112.6V921.938H1114.85V939ZM1123.72 937.465C1124.5 937.465 1125.17 937.23 1125.75 936.762C1126.33 936.293 1126.65 935.707 1126.71 935.004H1128.76C1128.72 935.73 1128.47 936.422 1128.01 937.078C1127.55 937.734 1126.93 938.258 1126.16 938.648C1125.39 939.039 1124.58 939.234 1123.72 939.234C1122 939.234 1120.62 938.66 1119.6 937.512C1118.58 936.355 1118.07 934.777 1118.07 932.777V932.414C1118.07 931.18 1118.3 930.082 1118.75 929.121C1119.21 928.16 1119.86 927.414 1120.7 926.883C1121.55 926.352 1122.55 926.086 1123.71 926.086C1125.13 926.086 1126.31 926.512 1127.25 927.363C1128.2 928.215 1128.7 929.32 1128.76 930.68H1126.71C1126.65 929.859 1126.34 929.188 1125.77 928.664C1125.22 928.133 1124.53 927.867 1123.71 927.867C1122.61 927.867 1121.75 928.266 1121.14 929.062C1120.54 929.852 1120.24 930.996 1120.24 932.496V932.906C1120.24 934.367 1120.54 935.492 1121.14 936.281C1121.75 937.07 1122.61 937.465 1123.72 937.465ZM1130.62 932.543C1130.62 931.301 1130.87 930.184 1131.35 929.191C1131.84 928.199 1132.52 927.434 1133.39 926.895C1134.27 926.355 1135.26 926.086 1136.38 926.086C1138.11 926.086 1139.5 926.684 1140.56 927.879C1141.63 929.074 1142.17 930.664 1142.17 932.648V932.801C1142.17 934.035 1141.93 935.145 1141.45 936.129C1140.98 937.105 1140.31 937.867 1139.43 938.414C1138.55 938.961 1137.54 939.234 1136.4 939.234C1134.68 939.234 1133.29 938.637 1132.22 937.441C1131.16 936.246 1130.62 934.664 1130.62 932.695V932.543ZM1132.8 932.801C1132.8 934.207 1133.13 935.336 1133.78 936.188C1134.43 937.039 1135.31 937.465 1136.4 937.465C1137.5 937.465 1138.38 937.035 1139.03 936.176C1139.68 935.309 1140 934.098 1140 932.543C1140 931.152 1139.67 930.027 1139 929.168C1138.35 928.301 1137.47 927.867 1136.38 927.867C1135.31 927.867 1134.45 928.293 1133.79 929.145C1133.13 929.996 1132.8 931.215 1132.8 932.801ZM1146.94 926.32L1147.01 927.914C1147.98 926.695 1149.24 926.086 1150.8 926.086C1153.48 926.086 1154.84 927.598 1154.86 930.621V939H1152.69V930.609C1152.68 929.695 1152.47 929.02 1152.06 928.582C1151.65 928.145 1151.02 927.926 1150.15 927.926C1149.45 927.926 1148.83 928.113 1148.3 928.488C1147.77 928.863 1147.35 929.355 1147.05 929.965V939H1144.89V926.32H1146.94ZM1166.44 939H1164.27V921H1166.44V939ZM1172.27 939H1170.11V926.32H1172.27V939ZM1169.93 922.957C1169.93 922.605 1170.04 922.309 1170.25 922.066C1170.46 921.824 1170.79 921.703 1171.21 921.703C1171.63 921.703 1171.95 921.824 1172.17 922.066C1172.39 922.309 1172.5 922.605 1172.5 922.957C1172.5 923.309 1172.39 923.602 1172.17 923.836C1171.95 924.07 1171.63 924.188 1171.21 924.188C1170.79 924.188 1170.46 924.07 1170.25 923.836C1170.04 923.602 1169.93 923.309 1169.93 922.957ZM1181.02 939.234C1179.3 939.234 1177.9 938.672 1176.82 937.547C1175.74 936.414 1175.2 934.902 1175.2 933.012V932.613C1175.2 931.355 1175.44 930.234 1175.92 929.25C1176.4 928.258 1177.07 927.484 1177.93 926.93C1178.8 926.367 1179.74 926.086 1180.75 926.086C1182.39 926.086 1183.68 926.629 1184.59 927.715C1185.5 928.801 1185.96 930.355 1185.96 932.379V933.281H1177.37C1177.4 934.531 1177.77 935.543 1178.46 936.316C1179.16 937.082 1180.05 937.465 1181.13 937.465C1181.9 937.465 1182.55 937.309 1183.08 936.996C1183.61 936.684 1184.07 936.27 1184.47 935.754L1185.8 936.785C1184.73 938.418 1183.14 939.234 1181.02 939.234ZM1180.75 927.867C1179.87 927.867 1179.14 928.188 1178.54 928.828C1177.95 929.461 1177.58 930.352 1177.44 931.5H1183.79V931.336C1183.73 930.234 1183.43 929.383 1182.9 928.781C1182.37 928.172 1181.65 927.867 1180.75 927.867ZM1184.29 924.211V924.328H1182.49L1180.73 922.336L1178.99 924.328H1177.2V924.188L1180.08 921H1181.39L1184.29 924.211ZM1190.53 926.32L1190.6 927.914C1191.57 926.695 1192.84 926.086 1194.4 926.086C1197.08 926.086 1198.43 927.598 1198.45 930.621V939H1196.29V930.609C1196.28 929.695 1196.07 929.02 1195.65 928.582C1195.25 928.145 1194.61 927.926 1193.74 927.926C1193.04 927.926 1192.42 928.113 1191.89 928.488C1191.36 928.863 1190.95 929.355 1190.65 929.965V939H1188.48V926.32H1190.53ZM1211.21 933.129L1209.86 934.547V939H1207.69V921H1209.86V931.887L1211.02 930.492L1214.96 926.32H1217.6L1212.67 931.617L1218.18 939H1215.63L1211.21 933.129ZM1224.87 939.234C1223.15 939.234 1221.75 938.672 1220.67 937.547C1219.59 936.414 1219.05 934.902 1219.05 933.012V932.613C1219.05 931.355 1219.29 930.234 1219.77 929.25C1220.25 928.258 1220.93 927.484 1221.79 926.93C1222.65 926.367 1223.59 926.086 1224.6 926.086C1226.25 926.086 1227.53 926.629 1228.44 927.715C1229.36 928.801 1229.81 930.355 1229.81 932.379V933.281H1221.22C1221.25 934.531 1221.62 935.543 1222.31 936.316C1223.02 937.082 1223.91 937.465 1224.98 937.465C1225.75 937.465 1226.4 937.309 1226.93 936.996C1227.46 936.684 1227.93 936.27 1228.32 935.754L1229.65 936.785C1228.59 938.418 1226.99 939.234 1224.87 939.234ZM1224.6 927.867C1223.72 927.867 1222.99 928.188 1222.39 928.828C1221.8 929.461 1221.43 930.352 1221.29 931.5H1227.64V931.336C1227.58 930.234 1227.29 929.383 1226.75 928.781C1226.22 928.172 1225.5 927.867 1224.6 927.867ZM1223.71 921.363H1225.49L1228.89 924.445H1226.58L1224.6 922.582L1222.61 924.445H1220.29L1223.71 921.363ZM1229.68 919.336H1232.03L1229.67 922.371H1228.02L1229.68 919.336ZM1235.27 923.25V926.32H1237.64V927.996H1235.27V935.859C1235.27 936.367 1235.38 936.75 1235.59 937.008C1235.8 937.258 1236.16 937.383 1236.67 937.383C1236.92 937.383 1237.26 937.336 1237.7 937.242V939C1237.13 939.156 1236.57 939.234 1236.04 939.234C1235.07 939.234 1234.34 938.941 1233.84 938.355C1233.35 937.77 1233.11 936.938 1233.11 935.859V927.996H1230.8V926.32H1233.11V923.25H1235.27Z" fill="black"/>
<path d="M424.984 52.875V57.8672C426.781 57.6953 428.055 57.0781 428.805 56.0156C429.57 54.9375 429.953 53.25 429.953 50.9531H433.68C433.68 54.2344 432.984 56.6953 431.594 58.3359C430.219 59.9609 428.016 60.8672 424.984 61.0547V76.1016C424.969 79.2109 424.008 81.7812 422.102 83.8125C420.195 85.8438 417.594 87.0312 414.297 87.375L412.586 87.4688C408.852 87.4688 405.875 86.4609 403.656 84.4453C401.438 82.4297 400.312 79.6562 400.281 76.125V52.875H404.734V75.9844C404.734 78.4531 405.414 80.375 406.773 81.75C408.133 83.1094 410.07 83.7891 412.586 83.7891C415.133 83.7891 417.078 83.1094 418.422 81.75C419.781 80.3906 420.461 78.4766 420.461 76.0078V52.875H424.984ZM415.375 43.4531H420.625L414.344 50.3438H410.852L415.375 43.4531ZM460.562 87H456.039L438.859 60.7031V87H434.336V52.875H438.859L456.086 79.2891V52.875H460.562V87ZM493.75 82.5234C492.594 84.1797 490.977 85.4219 488.898 86.25C486.836 87.0625 484.43 87.4688 481.68 87.4688C478.898 87.4688 476.43 86.8203 474.273 85.5234C472.117 84.2109 470.445 82.3516 469.258 79.9453C468.086 77.5391 467.484 74.75 467.453 71.5781V68.6016C467.453 63.4609 468.648 59.4766 471.039 56.6484C473.445 53.8203 476.82 52.4062 481.164 52.4062C484.727 52.4062 487.594 53.3203 489.766 55.1484C491.938 56.9609 493.266 59.5391 493.75 62.8828H489.25C488.406 58.3672 485.719 56.1094 481.188 56.1094C478.172 56.1094 475.883 57.1719 474.32 59.2969C472.773 61.4062 471.992 64.4688 471.977 68.4844V71.2734C471.977 75.1016 472.852 78.1484 474.602 80.4141C476.352 82.6641 478.719 83.7891 481.703 83.7891C483.391 83.7891 484.867 83.6016 486.133 83.2266C487.398 82.8516 488.445 82.2188 489.273 81.3281V73.6641H481.375V70.0078H493.75V82.5234ZM513.18 87V52.875H522.812C525.781 52.875 528.406 53.5312 530.688 54.8438C532.969 56.1562 534.727 58.0234 535.961 60.4453C537.211 62.8672 537.844 65.6484 537.859 68.7891V70.9688C537.859 74.1875 537.234 77.0078 535.984 79.4297C534.75 81.8516 532.977 83.7109 530.664 85.0078C528.367 86.3047 525.688 86.9688 522.625 87H513.18ZM517.68 56.5781V83.3203H522.414C525.883 83.3203 528.578 82.2422 530.5 80.0859C532.438 77.9297 533.406 74.8594 533.406 70.875V68.8828C533.406 65.0078 532.492 62 530.664 59.8594C528.852 57.7031 526.273 56.6094 522.93 56.5781H517.68ZM568.703 52.875V76.0781C568.688 79.2969 567.672 81.9297 565.656 83.9766C563.656 86.0234 560.938 87.1719 557.5 87.4219L556.305 87.4688C552.57 87.4688 549.594 86.4609 547.375 84.4453C545.156 82.4297 544.031 79.6562 544 76.125V52.875H548.453V75.9844C548.453 78.4531 549.133 80.375 550.492 81.75C551.852 83.1094 553.789 83.7891 556.305 83.7891C558.852 83.7891 560.797 83.1094 562.141 81.75C563.5 80.3906 564.18 78.4766 564.18 76.0078V52.875H568.703ZM553.609 92.7422C553.609 92.0391 553.82 91.4453 554.242 90.9609C554.68 90.4766 555.32 90.2344 556.164 90.2344C557.008 90.2344 557.648 90.4766 558.086 90.9609C558.523 91.4453 558.742 92.0391 558.742 92.7422C558.742 93.4453 558.523 94.0312 558.086 94.5C557.648 94.9688 557.008 95.2031 556.164 95.2031C555.32 95.2031 554.68 94.9688 554.242 94.5C553.82 94.0312 553.609 93.4453 553.609 92.7422ZM602.031 87H597.508L580.328 60.7031V87H575.805V52.875H580.328L597.555 79.2891V52.875H602.031V87ZM635.219 82.5234C634.062 84.1797 632.445 85.4219 630.367 86.25C628.305 87.0625 625.898 87.4688 623.148 87.4688C620.367 87.4688 617.898 86.8203 615.742 85.5234C613.586 84.2109 611.914 82.3516 610.727 79.9453C609.555 77.5391 608.953 74.75 608.922 71.5781V68.6016C608.922 63.4609 610.117 59.4766 612.508 56.6484C614.914 53.8203 618.289 52.4062 622.633 52.4062C626.195 52.4062 629.062 53.3203 631.234 55.1484C633.406 56.9609 634.734 59.5391 635.219 62.8828H630.719C629.875 58.3672 627.188 56.1094 622.656 56.1094C619.641 56.1094 617.352 57.1719 615.789 59.2969C614.242 61.4062 613.461 64.4688 613.445 68.4844V71.2734C613.445 75.1016 614.32 78.1484 616.07 80.4141C617.82 82.6641 620.188 83.7891 623.172 83.7891C624.859 83.7891 626.336 83.6016 627.602 83.2266C628.867 82.8516 629.914 82.2188 630.742 81.3281V73.6641H622.844V70.0078H635.219V82.5234ZM680.711 71.0391C680.711 74.3359 680.188 77.1797 679.141 79.5703C678.094 81.9453 676.625 83.8047 674.734 85.1484L680.828 89.9297L677.758 92.7656L670.562 87.0469C669.438 87.3281 668.25 87.4688 667 87.4688C664.312 87.4688 661.93 86.8125 659.852 85.5C657.773 84.1719 656.156 82.2891 655 79.8516C653.859 77.3984 653.273 74.5625 653.242 71.3438V68.8828C653.242 65.6016 653.812 62.7031 654.953 60.1875C656.094 57.6719 657.703 55.75 659.781 54.4219C661.875 53.0781 664.266 52.4062 666.953 52.4062C669.703 52.4062 672.117 53.0703 674.195 54.3984C676.289 55.7266 677.898 57.6406 679.023 60.1406C680.148 62.625 680.711 65.5312 680.711 68.8594V71.0391ZM676.211 68.8359C676.211 64.8203 675.406 61.7266 673.797 59.5547C672.203 57.3672 669.922 56.2734 666.953 56.2734C664.125 56.2734 661.891 57.3594 660.25 59.5312C658.625 61.6875 657.789 64.6875 657.742 68.5312V71.0391C657.742 74.9453 658.555 78.0234 660.18 80.2734C661.82 82.5234 664.094 83.6484 667 83.6484C669.906 83.6484 672.156 82.5938 673.75 80.4844C675.344 78.3594 676.164 75.3203 676.211 71.3672V68.8359ZM711.672 52.875V76.0781C711.656 79.2969 710.641 81.9297 708.625 83.9766C706.625 86.0234 703.906 87.1719 700.469 87.4219L699.273 87.4688C695.539 87.4688 692.562 86.4609 690.344 84.4453C688.125 82.4297 687 79.6562 686.969 76.125V52.875H691.422V75.9844C691.422 78.4531 692.102 80.375 693.461 81.75C694.82 83.1094 696.758 83.7891 699.273 83.7891C701.82 83.7891 703.766 83.1094 705.109 81.75C706.469 80.3906 707.148 78.4766 707.148 76.0078V52.875H711.672ZM737.102 78.0938H722.805L719.594 87H714.953L727.984 52.875H731.922L744.977 87H740.359L737.102 78.0938ZM724.164 74.3906H735.766L729.953 58.4297L724.164 74.3906ZM728.594 50.2734L728.57 46.6875C729.742 46.6094 730.602 46.4531 731.148 46.2188C731.695 45.9844 731.969 45.5625 731.969 44.9531C731.969 44.3438 731.609 43.8906 730.891 43.5938C730.188 43.2812 729.25 43.125 728.078 43.125L728.242 40.6406C730.57 40.6406 732.336 41.0469 733.539 41.8594C734.742 42.6562 735.344 43.7188 735.344 45.0469C735.344 46 735.039 46.7891 734.43 47.4141C733.82 48.0391 732.914 48.4375 731.711 48.6094L731.688 50.2734H728.594ZM775.797 87H771.273L754.094 60.7031V87H749.57V52.875H754.094L771.32 79.2891V52.875H775.797V87ZM800.219 83.3203H816.391V87H795.695V52.875H800.219V83.3203ZM826.305 70.0078L835.211 52.875H840.32L828.555 74.2734V87H824.055V74.2734L812.289 52.875H817.445L826.305 70.0078ZM828.531 43.7344H833.781L827.5 50.625H824.008L828.531 43.7344ZM882.859 87H878.336L861.156 60.7031V87H856.633V52.875H861.156L878.383 79.2891V52.875H882.859V87ZM917.078 87H912.555V71.2266H895.352V87H890.852V52.875H895.352V67.5469H912.555V52.875H917.078V87ZM944.336 78.0938H930.039L926.828 87H922.188L935.219 52.875H939.156L952.211 87H947.594L944.336 78.0938ZM931.398 74.3906H943L937.188 58.4297L931.398 74.3906ZM944.383 50.1562V50.3906H940.797L937.281 46.4062L933.789 50.3906H930.203V50.1094L935.969 43.7344H938.594L944.383 50.1562ZM983.031 87H978.508L961.328 60.7031V87H956.805V52.875H961.328L978.555 79.2891V52.875H983.031V87ZM1012.98 71.7891C1009.12 70.6797 1006.31 69.3203 1004.55 67.7109C1002.8 66.0859 1001.92 64.0859 1001.92 61.7109C1001.92 59.0234 1002.99 56.8047 1005.13 55.0547C1007.29 53.2891 1010.09 52.4062 1013.52 52.4062C1015.87 52.4062 1017.95 52.8594 1019.78 53.7656C1021.62 54.6719 1023.05 55.9219 1024.05 57.5156C1025.06 59.1094 1025.57 60.8516 1025.57 62.7422H1021.05C1021.05 60.6797 1020.39 59.0625 1019.08 57.8906C1017.77 56.7031 1015.91 56.1094 1013.52 56.1094C1011.3 56.1094 1009.57 56.6016 1008.32 57.5859C1007.09 58.5547 1006.47 59.9062 1006.47 61.6406C1006.47 63.0312 1007.05 64.2109 1008.23 65.1797C1009.41 66.1328 1011.42 67.0078 1014.25 67.8047C1017.09 68.6016 1019.31 69.4844 1020.91 70.4531C1022.52 71.4062 1023.7 72.5234 1024.47 73.8047C1025.25 75.0859 1025.64 76.5938 1025.64 78.3281C1025.64 81.0938 1024.56 83.3125 1022.41 84.9844C1020.25 86.6406 1017.37 87.4688 1013.76 87.4688C1011.41 87.4688 1009.23 87.0234 1007.2 86.1328C1005.16 85.2266 1003.59 83.9922 1002.48 82.4297C1001.39 80.8672 1000.84 79.0938 1000.84 77.1094H1005.37C1005.37 79.1719 1006.12 80.8047 1007.64 82.0078C1009.17 83.1953 1011.21 83.7891 1013.76 83.7891C1016.13 83.7891 1017.95 83.3047 1019.22 82.3359C1020.48 81.3672 1021.12 80.0469 1021.12 78.375C1021.12 76.7031 1020.53 75.4141 1019.36 74.5078C1018.19 73.5859 1016.06 72.6797 1012.98 71.7891ZM1055.45 52.875V57.8672C1057.25 57.6953 1058.52 57.0781 1059.27 56.0156C1060.04 54.9375 1060.42 53.25 1060.42 50.9531H1064.15C1064.15 54.2344 1063.45 56.6953 1062.06 58.3359C1060.69 59.9609 1058.48 60.8672 1055.45 61.0547V76.1016C1055.44 79.2109 1054.48 81.7812 1052.57 83.8125C1050.66 85.8438 1048.06 87.0312 1044.77 87.375L1043.05 87.4688C1039.32 87.4688 1036.34 86.4609 1034.12 84.4453C1031.91 82.4297 1030.78 79.6562 1030.75 76.125V52.875H1035.2V75.9844C1035.2 78.4531 1035.88 80.375 1037.24 81.75C1038.6 83.1094 1040.54 83.7891 1043.05 83.7891C1045.6 83.7891 1047.55 83.1094 1048.89 81.75C1050.25 80.3906 1050.93 78.4766 1050.93 76.0078V52.875H1055.45ZM1040.99 92.9297C1040.99 92.2266 1041.2 91.6328 1041.62 91.1484C1042.06 90.6641 1042.7 90.4219 1043.55 90.4219C1044.39 90.4219 1045.03 90.6641 1045.47 91.1484C1045.91 91.6328 1046.12 92.2266 1046.12 92.9297C1046.12 93.6328 1045.91 94.2188 1045.47 94.6875C1045.03 95.1562 1044.39 95.3906 1043.55 95.3906C1042.7 95.3906 1042.06 95.1562 1041.62 94.6875C1041.2 94.2188 1040.99 93.6328 1040.99 92.9297Z" fill="white"/>
<path d="M30.2422 172.16H38.3281V174H27.9805V156.938H30.2422V172.16ZM39.9805 167.543C39.9805 166.301 40.2227 165.184 40.707 164.191C41.1992 163.199 41.8789 162.434 42.7461 161.895C43.6211 161.355 44.6172 161.086 45.7344 161.086C47.4609 161.086 48.8555 161.684 49.918 162.879C50.9883 164.074 51.5234 165.664 51.5234 167.648V167.801C51.5234 169.035 51.2852 170.145 50.8086 171.129C50.3398 172.105 49.6641 172.867 48.7812 173.414C47.9062 173.961 46.8984 174.234 45.7578 174.234C44.0391 174.234 42.6445 173.637 41.5742 172.441C40.5117 171.246 39.9805 169.664 39.9805 167.695V167.543ZM42.1602 167.801C42.1602 169.207 42.4844 170.336 43.1328 171.188C43.7891 172.039 44.6641 172.465 45.7578 172.465C46.8594 172.465 47.7344 172.035 48.3828 171.176C49.0312 170.309 49.3555 169.098 49.3555 167.543C49.3555 166.152 49.0234 165.027 48.3594 164.168C47.7031 163.301 46.8281 162.867 45.7344 162.867C44.6641 162.867 43.8008 163.293 43.1445 164.145C42.4883 164.996 42.1602 166.215 42.1602 167.801ZM53.7266 167.555C53.7266 165.578 54.1836 164.008 55.0977 162.844C56.0117 161.672 57.2227 161.086 58.7305 161.086C60.2773 161.086 61.4844 161.633 62.3516 162.727L62.457 161.32H64.4375V173.695C64.4375 175.336 63.9492 176.629 62.9727 177.574C62.0039 178.52 60.6992 178.992 59.0586 178.992C58.1445 178.992 57.25 178.797 56.375 178.406C55.5 178.016 54.832 177.48 54.3711 176.801L55.4961 175.5C56.4258 176.648 57.5625 177.223 58.9062 177.223C59.9609 177.223 60.7812 176.926 61.3672 176.332C61.9609 175.738 62.2578 174.902 62.2578 173.824V172.734C61.3906 173.734 60.207 174.234 58.707 174.234C57.2227 174.234 56.0195 173.637 55.0977 172.441C54.1836 171.246 53.7266 169.617 53.7266 167.555ZM55.9062 167.801C55.9062 169.23 56.1992 170.355 56.7852 171.176C57.3711 171.988 58.1914 172.395 59.2461 172.395C60.6133 172.395 61.6172 171.773 62.2578 170.531V164.742C61.5938 163.531 60.5977 162.926 59.2695 162.926C58.2148 162.926 57.3906 163.336 56.7969 164.156C56.2031 164.977 55.9062 166.191 55.9062 167.801ZM67.1445 167.543C67.1445 166.301 67.3867 165.184 67.8711 164.191C68.3633 163.199 69.043 162.434 69.9102 161.895C70.7852 161.355 71.7812 161.086 72.8984 161.086C74.625 161.086 76.0195 161.684 77.082 162.879C78.1523 164.074 78.6875 165.664 78.6875 167.648V167.801C78.6875 169.035 78.4492 170.145 77.9727 171.129C77.5039 172.105 76.8281 172.867 75.9453 173.414C75.0703 173.961 74.0625 174.234 72.9219 174.234C71.2031 174.234 69.8086 173.637 68.7383 172.441C67.6758 171.246 67.1445 169.664 67.1445 167.695V167.543ZM69.3242 167.801C69.3242 169.207 69.6484 170.336 70.2969 171.188C70.9531 172.039 71.8281 172.465 72.9219 172.465C74.0234 172.465 74.8984 172.035 75.5469 171.176C76.1953 170.309 76.5195 169.098 76.5195 167.543C76.5195 166.152 76.1875 165.027 75.5234 164.168C74.8672 163.301 73.9922 162.867 72.8984 162.867C71.8281 162.867 70.9648 163.293 70.3086 164.145C69.6523 164.996 69.3242 166.215 69.3242 167.801Z" fill="white"/>
<path d="M274.23 167.32V174H271.98V156.938H278.273C280.141 156.938 281.602 157.414 282.656 158.367C283.719 159.32 284.25 160.582 284.25 162.152C284.25 163.809 283.73 165.086 282.691 165.984C281.66 166.875 280.18 167.32 278.25 167.32H274.23ZM274.23 165.48H278.273C279.477 165.48 280.398 165.199 281.039 164.637C281.68 164.066 282 163.246 282 162.176C282 161.16 281.68 160.348 281.039 159.738C280.398 159.129 279.52 158.812 278.402 158.789H274.23V165.48ZM288.949 162.855C289.91 161.676 291.16 161.086 292.699 161.086C295.379 161.086 296.73 162.598 296.754 165.621V174H294.586V165.609C294.578 164.695 294.367 164.02 293.953 163.582C293.547 163.145 292.91 162.926 292.043 162.926C291.34 162.926 290.723 163.113 290.191 163.488C289.66 163.863 289.246 164.355 288.949 164.965V174H286.781V156H288.949V162.855ZM299.426 167.543C299.426 166.301 299.668 165.184 300.152 164.191C300.645 163.199 301.324 162.434 302.191 161.895C303.066 161.355 304.062 161.086 305.18 161.086C306.906 161.086 308.301 161.684 309.363 162.879C310.434 164.074 310.969 165.664 310.969 167.648V167.801C310.969 169.035 310.73 170.145 310.254 171.129C309.785 172.105 309.109 172.867 308.227 173.414C307.352 173.961 306.344 174.234 305.203 174.234C303.484 174.234 302.09 173.637 301.02 172.441C299.957 171.246 299.426 169.664 299.426 167.695V167.543ZM301.605 167.801C301.605 169.207 301.93 170.336 302.578 171.188C303.234 172.039 304.109 172.465 305.203 172.465C306.305 172.465 307.18 172.035 307.828 171.176C308.477 170.309 308.801 169.098 308.801 167.543C308.801 166.152 308.469 165.027 307.805 164.168C307.148 163.301 306.273 162.867 305.18 162.867C304.109 162.867 303.246 163.293 302.59 164.145C301.934 164.996 301.605 166.215 301.605 167.801ZM306.34 159.445H304.477L301.453 156H304.066L306.34 159.445ZM315.738 161.32L315.809 162.914C316.777 161.695 318.043 161.086 319.605 161.086C322.285 161.086 323.637 162.598 323.66 165.621V174H321.492V165.609C321.484 164.695 321.273 164.02 320.859 163.582C320.453 163.145 319.816 162.926 318.949 162.926C318.246 162.926 317.629 163.113 317.098 163.488C316.566 163.863 316.152 164.355 315.855 164.965V174H313.688V161.32H315.738ZM326.414 167.555C326.414 165.578 326.871 164.008 327.785 162.844C328.699 161.672 329.91 161.086 331.418 161.086C332.965 161.086 334.172 161.633 335.039 162.727L335.145 161.32H337.125V173.695C337.125 175.336 336.637 176.629 335.66 177.574C334.691 178.52 333.387 178.992 331.746 178.992C330.832 178.992 329.938 178.797 329.062 178.406C328.188 178.016 327.52 177.48 327.059 176.801L328.184 175.5C329.113 176.648 330.25 177.223 331.594 177.223C332.648 177.223 333.469 176.926 334.055 176.332C334.648 175.738 334.945 174.902 334.945 173.824V172.734C334.078 173.734 332.895 174.234 331.395 174.234C329.91 174.234 328.707 173.637 327.785 172.441C326.871 171.246 326.414 169.617 326.414 167.555ZM328.594 167.801C328.594 169.23 328.887 170.355 329.473 171.176C330.059 171.988 330.879 172.395 331.934 172.395C333.301 172.395 334.305 171.773 334.945 170.531V164.742C334.281 163.531 333.285 162.926 331.957 162.926C330.902 162.926 330.078 163.336 329.484 164.156C328.891 164.977 328.594 166.191 328.594 167.801ZM357.094 167.801C357.094 169.738 356.648 171.297 355.758 172.477C354.867 173.648 353.672 174.234 352.172 174.234C350.57 174.234 349.332 173.668 348.457 172.535L348.352 174H346.359V156H348.527V162.715C349.402 161.629 350.609 161.086 352.148 161.086C353.688 161.086 354.895 161.668 355.77 162.832C356.652 163.996 357.094 165.59 357.094 167.613V167.801ZM354.926 167.555C354.926 166.078 354.641 164.938 354.07 164.133C353.5 163.328 352.68 162.926 351.609 162.926C350.18 162.926 349.152 163.59 348.527 164.918V170.402C349.191 171.73 350.227 172.395 351.633 172.395C352.672 172.395 353.48 171.992 354.059 171.188C354.637 170.383 354.926 169.172 354.926 167.555ZM367.664 174C367.539 173.75 367.438 173.305 367.359 172.664C366.352 173.711 365.148 174.234 363.75 174.234C362.5 174.234 361.473 173.883 360.668 173.18C359.871 172.469 359.473 171.57 359.473 170.484C359.473 169.164 359.973 168.141 360.973 167.414C361.98 166.68 363.395 166.312 365.215 166.312H367.324V165.316C367.324 164.559 367.098 163.957 366.645 163.512C366.191 163.059 365.523 162.832 364.641 162.832C363.867 162.832 363.219 163.027 362.695 163.418C362.172 163.809 361.91 164.281 361.91 164.836H359.73C359.73 164.203 359.953 163.594 360.398 163.008C360.852 162.414 361.461 161.945 362.227 161.602C363 161.258 363.848 161.086 364.77 161.086C366.23 161.086 367.375 161.453 368.203 162.188C369.031 162.914 369.461 163.918 369.492 165.199V171.035C369.492 172.199 369.641 173.125 369.938 173.812V174H367.664ZM364.066 172.348C364.746 172.348 365.391 172.172 366 171.82C366.609 171.469 367.051 171.012 367.324 170.449V167.848H365.625C362.969 167.848 361.641 168.625 361.641 170.18C361.641 170.859 361.867 171.391 362.32 171.773C362.773 172.156 363.355 172.348 364.066 172.348ZM374.941 161.32L375.012 162.914C375.98 161.695 377.246 161.086 378.809 161.086C381.488 161.086 382.84 162.598 382.863 165.621V174H380.695V165.609C380.688 164.695 380.477 164.02 380.062 163.582C379.656 163.145 379.02 162.926 378.152 162.926C377.449 162.926 376.832 163.113 376.301 163.488C375.77 163.863 375.355 164.355 375.059 164.965V174H372.891V161.32H374.941Z" fill="white"/>
<path d="M416.98 174V156.938H422.559C424.41 156.938 425.801 157.32 426.73 158.086C427.668 158.852 428.137 159.984 428.137 161.484C428.137 162.281 427.91 162.988 427.457 163.605C427.004 164.215 426.387 164.688 425.605 165.023C426.527 165.281 427.254 165.773 427.785 166.5C428.324 167.219 428.594 168.078 428.594 169.078C428.594 170.609 428.098 171.812 427.105 172.688C426.113 173.562 424.711 174 422.898 174H416.98ZM419.23 166.02V172.16H422.945C423.992 172.16 424.816 171.891 425.418 171.352C426.027 170.805 426.332 170.055 426.332 169.102C426.332 167.047 425.215 166.02 422.98 166.02H419.23ZM419.23 164.215H422.629C423.613 164.215 424.398 163.969 424.984 163.477C425.578 162.984 425.875 162.316 425.875 161.473C425.875 160.535 425.602 159.855 425.055 159.434C424.508 159.004 423.676 158.789 422.559 158.789H419.23V164.215ZM439.422 174C439.297 173.75 439.195 173.305 439.117 172.664C438.109 173.711 436.906 174.234 435.508 174.234C434.258 174.234 433.23 173.883 432.426 173.18C431.629 172.469 431.23 171.57 431.23 170.484C431.23 169.164 431.73 168.141 432.73 167.414C433.738 166.68 435.152 166.312 436.973 166.312H439.082V165.316C439.082 164.559 438.855 163.957 438.402 163.512C437.949 163.059 437.281 162.832 436.398 162.832C435.625 162.832 434.977 163.027 434.453 163.418C433.93 163.809 433.668 164.281 433.668 164.836H431.488C431.488 164.203 431.711 163.594 432.156 163.008C432.609 162.414 433.219 161.945 433.984 161.602C434.758 161.258 435.605 161.086 436.527 161.086C437.988 161.086 439.133 161.453 439.961 162.188C440.789 162.914 441.219 163.918 441.25 165.199V171.035C441.25 172.199 441.398 173.125 441.695 173.812V174H439.422ZM435.824 172.348C436.504 172.348 437.148 172.172 437.758 171.82C438.367 171.469 438.809 171.012 439.082 170.449V167.848H437.383C434.727 167.848 433.398 168.625 433.398 170.18C433.398 170.859 433.625 171.391 434.078 171.773C434.531 172.156 435.113 172.348 435.824 172.348ZM436.035 159.27L436.023 157.477C436.609 157.438 437.039 157.359 437.312 157.242C437.586 157.125 437.723 156.914 437.723 156.609C437.723 156.305 437.543 156.078 437.184 155.93C436.832 155.773 436.363 155.695 435.777 155.695L435.859 154.453C437.023 154.453 437.906 154.656 438.508 155.062C439.109 155.461 439.41 155.992 439.41 156.656C439.41 157.133 439.258 157.527 438.953 157.84C438.648 158.152 438.195 158.352 437.594 158.438L437.582 159.27H436.035ZM446.699 161.32L446.77 162.914C447.738 161.695 449.004 161.086 450.566 161.086C453.246 161.086 454.598 162.598 454.621 165.621V174H452.453V165.609C452.445 164.695 452.234 164.02 451.82 163.582C451.414 163.145 450.777 162.926 449.91 162.926C449.207 162.926 448.59 163.113 448.059 163.488C447.527 163.863 447.113 164.355 446.816 164.965V174H444.648V161.32H446.699ZM457.375 167.555C457.375 165.578 457.832 164.008 458.746 162.844C459.66 161.672 460.871 161.086 462.379 161.086C463.926 161.086 465.133 161.633 466 162.727L466.105 161.32H468.086V173.695C468.086 175.336 467.598 176.629 466.621 177.574C465.652 178.52 464.348 178.992 462.707 178.992C461.793 178.992 460.898 178.797 460.023 178.406C459.148 178.016 458.48 177.48 458.02 176.801L459.145 175.5C460.074 176.648 461.211 177.223 462.555 177.223C463.609 177.223 464.43 176.926 465.016 176.332C465.609 175.738 465.906 174.902 465.906 173.824V172.734C465.039 173.734 463.855 174.234 462.355 174.234C460.871 174.234 459.668 173.637 458.746 172.441C457.832 171.246 457.375 169.617 457.375 167.555ZM459.555 167.801C459.555 169.23 459.848 170.355 460.434 171.176C461.02 171.988 461.84 172.395 462.895 172.395C464.262 172.395 465.266 171.773 465.906 170.531V164.742C465.242 163.531 464.246 162.926 462.918 162.926C461.863 162.926 461.039 163.336 460.445 164.156C459.852 164.977 459.555 166.191 459.555 167.801ZM479.676 174H477.508V156H479.676V174ZM496.691 160.312C496.691 161.719 496.402 162.711 495.824 163.289C495.254 163.859 494.344 164.16 493.094 164.191V174H491.031L490.984 172.746C490.141 173.738 488.902 174.234 487.27 174.234C485.918 174.234 484.887 173.844 484.176 173.062C483.473 172.273 483.117 171.109 483.109 169.57V161.32H485.277V169.512C485.277 171.434 486.059 172.395 487.621 172.395C489.277 172.395 490.379 171.777 490.926 170.543V161.32H493.094V162.855C493.625 162.84 494.023 162.766 494.289 162.633C494.555 162.492 494.742 162.281 494.852 162C494.969 161.719 495.027 161.156 495.027 160.312H496.691ZM497.441 167.543C497.441 166.301 497.68 165.188 498.156 164.203C498.641 163.211 499.32 162.445 500.195 161.906C501.078 161.359 502.078 161.086 503.195 161.086C504.812 161.086 506.152 161.625 507.215 162.703C507.77 162.641 508.172 162.414 508.422 162.023C508.672 161.633 508.797 160.938 508.797 159.938H510.555C510.555 162.211 509.746 163.547 508.129 163.945C508.699 165.023 508.984 166.223 508.984 167.543V167.801C508.984 169.035 508.742 170.148 508.258 171.141C507.773 172.133 507.094 172.898 506.219 173.438C505.344 173.969 504.344 174.234 503.219 174.234C501.484 174.234 500.086 173.637 499.023 172.441C497.969 171.238 497.441 169.656 497.441 167.695V167.543ZM499.609 167.801C499.609 169.207 499.934 170.336 500.582 171.188C501.238 172.039 502.117 172.465 503.219 172.465C504.305 172.465 505.172 172.039 505.82 171.188C506.477 170.328 506.805 169.176 506.805 167.73V167.543C506.805 166.129 506.473 164.996 505.809 164.145C505.152 163.293 504.281 162.867 503.195 162.867C502.117 162.867 501.25 163.293 500.594 164.145C499.938 164.996 499.609 166.215 499.609 167.801ZM513.777 161.32L513.848 162.914C514.816 161.695 516.082 161.086 517.645 161.086C520.324 161.086 521.676 162.598 521.699 165.621V174H519.531V165.609C519.523 164.695 519.312 164.02 518.898 163.582C518.492 163.145 517.855 162.926 516.988 162.926C516.285 162.926 515.668 163.113 515.137 163.488C514.605 163.863 514.191 164.355 513.895 164.965V174H511.727V161.32H513.777ZM524.453 167.555C524.453 165.578 524.91 164.008 525.824 162.844C526.738 161.672 527.949 161.086 529.457 161.086C531.004 161.086 532.211 161.633 533.078 162.727L533.184 161.32H535.164V173.695C535.164 175.336 534.676 176.629 533.699 177.574C532.73 178.52 531.426 178.992 529.785 178.992C528.871 178.992 527.977 178.797 527.102 178.406C526.227 178.016 525.559 177.48 525.098 176.801L526.223 175.5C527.152 176.648 528.289 177.223 529.633 177.223C530.688 177.223 531.508 176.926 532.094 176.332C532.688 175.738 532.984 174.902 532.984 173.824V172.734C532.117 173.734 530.934 174.234 529.434 174.234C527.949 174.234 526.746 173.637 525.824 172.441C524.91 171.246 524.453 169.617 524.453 167.555ZM526.633 167.801C526.633 169.23 526.926 170.355 527.512 171.176C528.098 171.988 528.918 172.395 529.973 172.395C531.34 172.395 532.344 171.773 532.984 170.531V164.742C532.32 163.531 531.324 162.926 529.996 162.926C528.941 162.926 528.117 163.336 527.523 164.156C526.93 164.977 526.633 166.191 526.633 167.801Z" fill="white"/>
<rect x="861" y="145" width="436" height="46" fill="white"/>
<rect x="1297" y="145" width="117" height="46" fill="#C4C4C4"/>
<path d="M1318.77 163.789H1313.29V179H1311.05V163.789H1305.57V161.938H1318.77V163.789ZM1323.32 179H1321.14V166.32H1323.32V179ZM1323.53 164.457H1321.66L1318.64 161.012H1321.25L1323.53 164.457ZM1328.93 166.32L1328.99 167.727C1329.92 166.633 1331.17 166.086 1332.75 166.086C1334.52 166.086 1335.73 166.766 1336.37 168.125C1336.79 167.516 1337.34 167.023 1338.01 166.648C1338.69 166.273 1339.49 166.086 1340.41 166.086C1343.2 166.086 1344.61 167.559 1344.66 170.504V179H1342.49V170.633C1342.49 169.727 1342.28 169.051 1341.87 168.605C1341.45 168.152 1340.76 167.926 1339.78 167.926C1338.98 167.926 1338.31 168.168 1337.78 168.652C1337.25 169.129 1336.94 169.773 1336.85 170.586V179H1334.67V170.691C1334.67 168.848 1333.77 167.926 1331.96 167.926C1330.54 167.926 1329.57 168.531 1329.05 169.742V179H1326.88V166.32H1328.93ZM1357.43 173.129L1356.07 174.547V179H1353.9V161H1356.07V171.887L1357.23 170.492L1361.18 166.32H1363.82L1358.88 171.617L1364.39 179H1361.85L1357.43 173.129ZM1368.41 179H1366.24V166.32H1368.41V179ZM1366.07 162.957C1366.07 162.605 1366.17 162.309 1366.38 162.066C1366.6 161.824 1366.92 161.703 1367.34 161.703C1367.77 161.703 1368.09 161.824 1368.3 162.066C1368.52 162.309 1368.63 162.605 1368.63 162.957C1368.63 163.309 1368.52 163.602 1368.3 163.836C1368.09 164.07 1367.77 164.188 1367.34 164.188C1366.92 164.188 1366.6 164.07 1366.38 163.836C1366.17 163.602 1366.07 163.309 1366.07 162.957ZM1377.15 179.234C1375.43 179.234 1374.04 178.672 1372.96 177.547C1371.88 176.414 1371.34 174.902 1371.34 173.012V172.613C1371.34 171.355 1371.58 170.234 1372.05 169.25C1372.54 168.258 1373.21 167.484 1374.07 166.93C1374.94 166.367 1375.88 166.086 1376.88 166.086C1378.53 166.086 1379.81 166.629 1380.73 167.715C1381.64 168.801 1382.1 170.355 1382.1 172.379V173.281H1373.51C1373.54 174.531 1373.9 175.543 1374.6 176.316C1375.3 177.082 1376.19 177.465 1377.27 177.465C1378.04 177.465 1378.68 177.309 1379.21 176.996C1379.75 176.684 1380.21 176.27 1380.61 175.754L1381.93 176.785C1380.87 178.418 1379.28 179.234 1377.15 179.234ZM1376.88 167.867C1376.01 167.867 1375.27 168.188 1374.68 168.828C1374.09 169.461 1373.72 170.352 1373.58 171.5H1379.93V171.336C1379.87 170.234 1379.57 169.383 1379.04 168.781C1378.51 168.172 1377.79 167.867 1376.88 167.867ZM1375.99 161.363H1377.77L1381.17 164.445H1378.86L1376.88 162.582L1374.89 164.445H1372.57L1375.99 161.363ZM1381.97 159.336H1384.31L1381.96 162.371H1380.3L1381.97 159.336ZM1386.66 166.32L1386.71 167.727C1387.64 166.633 1388.9 166.086 1390.48 166.086C1392.25 166.086 1393.46 166.766 1394.1 168.125C1394.52 167.516 1395.07 167.023 1395.74 166.648C1396.42 166.273 1397.22 166.086 1398.14 166.086C1400.92 166.086 1402.34 167.559 1402.38 170.504V179H1400.21V170.633C1400.21 169.727 1400.01 169.051 1399.59 168.605C1399.18 168.152 1398.48 167.926 1397.51 167.926C1396.7 167.926 1396.04 168.168 1395.5 168.652C1394.97 169.129 1394.66 169.773 1394.58 170.586V179H1392.4V170.691C1392.4 168.848 1391.5 167.926 1389.69 167.926C1388.27 167.926 1387.3 168.531 1386.77 169.742V179H1384.61V166.32H1386.66Z" fill="white"/>
<rect x="80.5" y="289.5" width="215" height="249" fill="white" stroke="black"/>
<path d="M153.133 342H150.871V334.113H142.27V342H140.02V324.938H142.27V332.273H150.871V324.938H153.133V342ZM159.145 342H156.965V329.32H159.145V342ZM159.355 327.457H157.492L154.469 324.012H157.082L159.355 327.457ZM164.77 329.32L164.84 330.914C165.809 329.695 167.074 329.086 168.637 329.086C171.316 329.086 172.668 330.598 172.691 333.621V342H170.523V333.609C170.516 332.695 170.305 332.02 169.891 331.582C169.484 331.145 168.848 330.926 167.98 330.926C167.277 330.926 166.66 331.113 166.129 331.488C165.598 331.863 165.184 332.355 164.887 332.965V342H162.719V329.32H164.77ZM178.129 330.855C179.09 329.676 180.34 329.086 181.879 329.086C184.559 329.086 185.91 330.598 185.934 333.621V342H183.766V333.609C183.758 332.695 183.547 332.02 183.133 331.582C182.727 331.145 182.09 330.926 181.223 330.926C180.52 330.926 179.902 331.113 179.371 331.488C178.84 331.863 178.426 332.355 178.129 332.965V342H175.961V324H178.129V330.855ZM202.961 342C202.836 341.75 202.734 341.305 202.656 340.664C201.648 341.711 200.445 342.234 199.047 342.234C197.797 342.234 196.77 341.883 195.965 341.18C195.168 340.469 194.77 339.57 194.77 338.484C194.77 337.164 195.27 336.141 196.27 335.414C197.277 334.68 198.691 334.312 200.512 334.312H202.621V333.316C202.621 332.559 202.395 331.957 201.941 331.512C201.488 331.059 200.82 330.832 199.938 330.832C199.164 330.832 198.516 331.027 197.992 331.418C197.469 331.809 197.207 332.281 197.207 332.836H195.027C195.027 332.203 195.25 331.594 195.695 331.008C196.148 330.414 196.758 329.945 197.523 329.602C198.297 329.258 199.145 329.086 200.066 329.086C201.527 329.086 202.672 329.453 203.5 330.188C204.328 330.914 204.758 331.918 204.789 333.199V339.035C204.789 340.199 204.938 341.125 205.234 341.812V342H202.961ZM199.363 340.348C200.043 340.348 200.688 340.172 201.297 339.82C201.906 339.469 202.348 339.012 202.621 338.449V335.848H200.922C198.266 335.848 196.938 336.625 196.938 338.18C196.938 338.859 197.164 339.391 197.617 339.773C198.07 340.156 198.652 340.348 199.363 340.348ZM199.574 327.27L199.562 325.477C200.148 325.438 200.578 325.359 200.852 325.242C201.125 325.125 201.262 324.914 201.262 324.609C201.262 324.305 201.082 324.078 200.723 323.93C200.371 323.773 199.902 323.695 199.316 323.695L199.398 322.453C200.562 322.453 201.445 322.656 202.047 323.062C202.648 323.461 202.949 323.992 202.949 324.656C202.949 325.133 202.797 325.527 202.492 325.84C202.188 326.152 201.734 326.352 201.133 326.438L201.121 327.27H199.574ZM210.238 329.32L210.309 330.914C211.277 329.695 212.543 329.086 214.105 329.086C216.785 329.086 218.137 330.598 218.16 333.621V342H215.992V333.609C215.984 332.695 215.773 332.02 215.359 331.582C214.953 331.145 214.316 330.926 213.449 330.926C212.746 330.926 212.129 331.113 211.598 331.488C211.066 331.863 210.652 332.355 210.355 332.965V342H208.188V329.32H210.238ZM223.598 330.855C224.559 329.676 225.809 329.086 227.348 329.086C230.027 329.086 231.379 330.598 231.402 333.621V342H229.234V333.609C229.227 332.695 229.016 332.02 228.602 331.582C228.195 331.145 227.559 330.926 226.691 330.926C225.988 330.926 225.371 331.113 224.84 331.488C224.309 331.863 223.895 332.355 223.598 332.965V342H221.43V324H223.598V330.855ZM141.121 357.32L141.191 358.914C142.16 357.695 143.426 357.086 144.988 357.086C147.668 357.086 149.02 358.598 149.043 361.621V370H146.875V361.609C146.867 360.695 146.656 360.02 146.242 359.582C145.836 359.145 145.199 358.926 144.332 358.926C143.629 358.926 143.012 359.113 142.48 359.488C141.949 359.863 141.535 360.355 141.238 360.965V370H139.07V357.32H141.121ZM154.48 358.855C155.441 357.676 156.691 357.086 158.23 357.086C160.91 357.086 162.262 358.598 162.285 361.621V370H160.117V361.609C160.109 360.695 159.898 360.02 159.484 359.582C159.078 359.145 158.441 358.926 157.574 358.926C156.871 358.926 156.254 359.113 155.723 359.488C155.191 359.863 154.777 360.355 154.48 360.965V370H152.312V352H154.48V358.855ZM173.359 370C173.234 369.75 173.133 369.305 173.055 368.664C172.047 369.711 170.844 370.234 169.445 370.234C168.195 370.234 167.168 369.883 166.363 369.18C165.566 368.469 165.168 367.57 165.168 366.484C165.168 365.164 165.668 364.141 166.668 363.414C167.676 362.68 169.09 362.312 170.91 362.312H173.02V361.316C173.02 360.559 172.793 359.957 172.34 359.512C171.887 359.059 171.219 358.832 170.336 358.832C169.562 358.832 168.914 359.027 168.391 359.418C167.867 359.809 167.605 360.281 167.605 360.836H165.426C165.426 360.203 165.648 359.594 166.094 359.008C166.547 358.414 167.156 357.945 167.922 357.602C168.695 357.258 169.543 357.086 170.465 357.086C171.926 357.086 173.07 357.453 173.898 358.188C174.727 358.914 175.156 359.918 175.188 361.199V367.035C175.188 368.199 175.336 369.125 175.633 369.812V370H173.359ZM169.762 368.348C170.441 368.348 171.086 368.172 171.695 367.82C172.305 367.469 172.746 367.012 173.02 366.449V363.848H171.32C168.664 363.848 167.336 364.625 167.336 366.18C167.336 366.859 167.562 367.391 168.016 367.773C168.469 368.156 169.051 368.348 169.762 368.348ZM174.25 355.211V355.328H172.457L170.699 353.336L168.953 355.328H167.16V355.188L170.043 352H171.355L174.25 355.211ZM180.637 357.32L180.707 358.914C181.676 357.695 182.941 357.086 184.504 357.086C187.184 357.086 188.535 358.598 188.559 361.621V370H186.391V361.609C186.383 360.695 186.172 360.02 185.758 359.582C185.352 359.145 184.715 358.926 183.848 358.926C183.145 358.926 182.527 359.113 181.996 359.488C181.465 359.863 181.051 360.355 180.754 360.965V370H178.586V357.32H180.637ZM201.965 367.059L205.105 357.32H207.32L202.773 370H201.121L196.527 357.32H198.742L201.965 367.059ZM211.762 370H209.594V357.32H211.762V370ZM209.418 353.957C209.418 353.605 209.523 353.309 209.734 353.066C209.953 352.824 210.273 352.703 210.695 352.703C211.117 352.703 211.438 352.824 211.656 353.066C211.875 353.309 211.984 353.605 211.984 353.957C211.984 354.309 211.875 354.602 211.656 354.836C211.438 355.07 211.117 355.188 210.695 355.188C210.273 355.188 209.953 355.07 209.734 354.836C209.523 354.602 209.418 354.309 209.418 353.957ZM220.504 370.234C218.785 370.234 217.387 369.672 216.309 368.547C215.23 367.414 214.691 365.902 214.691 364.012V363.613C214.691 362.355 214.93 361.234 215.406 360.25C215.891 359.258 216.562 358.484 217.422 357.93C218.289 357.367 219.227 357.086 220.234 357.086C221.883 357.086 223.164 357.629 224.078 358.715C224.992 359.801 225.449 361.355 225.449 363.379V364.281H216.859C216.891 365.531 217.254 366.543 217.949 367.316C218.652 368.082 219.543 368.465 220.621 368.465C221.387 368.465 222.035 368.309 222.566 367.996C223.098 367.684 223.562 367.27 223.961 366.754L225.285 367.785C224.223 369.418 222.629 370.234 220.504 370.234ZM220.234 358.867C219.359 358.867 218.625 359.188 218.031 359.828C217.438 360.461 217.07 361.352 216.93 362.5H223.281V362.336C223.219 361.234 222.922 360.383 222.391 359.781C221.859 359.172 221.141 358.867 220.234 358.867ZM223.773 355.211V355.328H221.98L220.223 353.336L218.477 355.328H216.684V355.188L219.566 352H220.879L223.773 355.211ZM230.02 357.32L230.09 358.914C231.059 357.695 232.324 357.086 233.887 357.086C236.566 357.086 237.918 358.598 237.941 361.621V370H235.773V361.609C235.766 360.695 235.555 360.02 235.141 359.582C234.734 359.145 234.098 358.926 233.23 358.926C232.527 358.926 231.91 359.113 231.379 359.488C230.848 359.863 230.434 360.355 230.137 360.965V370H227.969V357.32H230.02Z" fill="black"/>
<g filter="url(#filter0_d)">
<rect x="101" y="132" width="145" height="63" rx="10" fill="#F1A708"/>
</g>
<path d="M137.094 174H134.832L126.242 160.852V174H123.98V156.938H126.242L134.855 170.145V156.938H137.094V174ZM142.918 162.855C143.879 161.676 145.129 161.086 146.668 161.086C149.348 161.086 150.699 162.598 150.723 165.621V174H148.555V165.609C148.547 164.695 148.336 164.02 147.922 163.582C147.516 163.145 146.879 162.926 146.012 162.926C145.309 162.926 144.691 163.113 144.16 163.488C143.629 163.863 143.215 164.355 142.918 164.965V174H140.75V156H142.918V162.855ZM161.797 174C161.672 173.75 161.57 173.305 161.492 172.664C160.484 173.711 159.281 174.234 157.883 174.234C156.633 174.234 155.605 173.883 154.801 173.18C154.004 172.469 153.605 171.57 153.605 170.484C153.605 169.164 154.105 168.141 155.105 167.414C156.113 166.68 157.527 166.312 159.348 166.312H161.457V165.316C161.457 164.559 161.23 163.957 160.777 163.512C160.324 163.059 159.656 162.832 158.773 162.832C158 162.832 157.352 163.027 156.828 163.418C156.305 163.809 156.043 164.281 156.043 164.836H153.863C153.863 164.203 154.086 163.594 154.531 163.008C154.984 162.414 155.594 161.945 156.359 161.602C157.133 161.258 157.98 161.086 158.902 161.086C160.363 161.086 161.508 161.453 162.336 162.188C163.164 162.914 163.594 163.918 163.625 165.199V171.035C163.625 172.199 163.773 173.125 164.07 173.812V174H161.797ZM158.199 172.348C158.879 172.348 159.523 172.172 160.133 171.82C160.742 171.469 161.184 171.012 161.457 170.449V167.848H159.758C157.102 167.848 155.773 168.625 155.773 170.18C155.773 170.859 156 171.391 156.453 171.773C156.906 172.156 157.488 172.348 158.199 172.348ZM162.688 159.211V159.328H160.895L159.137 157.336L157.391 159.328H155.598V159.188L158.48 156H159.793L162.688 159.211ZM169.074 161.32L169.145 162.914C170.113 161.695 171.379 161.086 172.941 161.086C175.621 161.086 176.973 162.598 176.996 165.621V174H174.828V165.609C174.82 164.695 174.609 164.02 174.195 163.582C173.789 163.145 173.152 162.926 172.285 162.926C171.582 162.926 170.965 163.113 170.434 163.488C169.902 163.863 169.488 164.355 169.191 164.965V174H167.023V161.32H169.074ZM190.402 171.059L193.543 161.32H195.758L191.211 174H189.559L184.965 161.32H187.18L190.402 171.059ZM200.199 174H198.031V161.32H200.199V174ZM197.855 157.957C197.855 157.605 197.961 157.309 198.172 157.066C198.391 156.824 198.711 156.703 199.133 156.703C199.555 156.703 199.875 156.824 200.094 157.066C200.312 157.309 200.422 157.605 200.422 157.957C200.422 158.309 200.312 158.602 200.094 158.836C199.875 159.07 199.555 159.188 199.133 159.188C198.711 159.188 198.391 159.07 198.172 158.836C197.961 158.602 197.855 158.309 197.855 157.957ZM208.941 174.234C207.223 174.234 205.824 173.672 204.746 172.547C203.668 171.414 203.129 169.902 203.129 168.012V167.613C203.129 166.355 203.367 165.234 203.844 164.25C204.328 163.258 205 162.484 205.859 161.93C206.727 161.367 207.664 161.086 208.672 161.086C210.32 161.086 211.602 161.629 212.516 162.715C213.43 163.801 213.887 165.355 213.887 167.379V168.281H205.297C205.328 169.531 205.691 170.543 206.387 171.316C207.09 172.082 207.98 172.465 209.059 172.465C209.824 172.465 210.473 172.309 211.004 171.996C211.535 171.684 212 171.27 212.398 170.754L213.723 171.785C212.66 173.418 211.066 174.234 208.941 174.234ZM208.672 162.867C207.797 162.867 207.062 163.188 206.469 163.828C205.875 164.461 205.508 165.352 205.367 166.5H211.719V166.336C211.656 165.234 211.359 164.383 210.828 163.781C210.297 163.172 209.578 162.867 208.672 162.867ZM212.211 159.211V159.328H210.418L208.66 157.336L206.914 159.328H205.121V159.188L208.004 156H209.316L212.211 159.211ZM218.457 161.32L218.527 162.914C219.496 161.695 220.762 161.086 222.324 161.086C225.004 161.086 226.355 162.598 226.379 165.621V174H224.211V165.609C224.203 164.695 223.992 164.02 223.578 163.582C223.172 163.145 222.535 162.926 221.668 162.926C220.965 162.926 220.348 163.113 219.816 163.488C219.285 163.863 218.871 164.355 218.574 164.965V174H216.406V161.32H218.457Z" fill="white"/>
<path d="M385.008 350.789H379.523V366H377.285V350.789H371.812V348.938H385.008V350.789ZM389.367 354.855C390.328 353.676 391.578 353.086 393.117 353.086C395.797 353.086 397.148 354.598 397.172 357.621V366H395.004V357.609C394.996 356.695 394.785 356.02 394.371 355.582C393.965 355.145 393.328 354.926 392.461 354.926C391.758 354.926 391.141 355.113 390.609 355.488C390.078 355.863 389.664 356.355 389.367 356.965V366H387.199V348H389.367V354.855ZM399.844 359.543C399.844 358.301 400.086 357.184 400.57 356.191C401.062 355.199 401.742 354.434 402.609 353.895C403.484 353.355 404.48 353.086 405.598 353.086C407.324 353.086 408.719 353.684 409.781 354.879C410.852 356.074 411.387 357.664 411.387 359.648V359.801C411.387 361.035 411.148 362.145 410.672 363.129C410.203 364.105 409.527 364.867 408.645 365.414C407.77 365.961 406.762 366.234 405.621 366.234C403.902 366.234 402.508 365.637 401.438 364.441C400.375 363.246 399.844 361.664 399.844 359.695V359.543ZM402.023 359.801C402.023 361.207 402.348 362.336 402.996 363.188C403.652 364.039 404.527 364.465 405.621 364.465C406.723 364.465 407.598 364.035 408.246 363.176C408.895 362.309 409.219 361.098 409.219 359.543C409.219 358.152 408.887 357.027 408.223 356.168C407.566 355.301 406.691 354.867 405.598 354.867C404.527 354.867 403.664 355.293 403.008 356.145C402.352 356.996 402.023 358.215 402.023 359.801ZM409.066 351.211V351.328H407.273L405.516 349.336L403.77 351.328H401.977V351.188L404.859 348H406.172L409.066 351.211ZM416.156 353.32L416.227 354.914C417.195 353.695 418.461 353.086 420.023 353.086C422.703 353.086 424.055 354.598 424.078 357.621V366H421.91V357.609C421.902 356.695 421.691 356.02 421.277 355.582C420.871 355.145 420.234 354.926 419.367 354.926C418.664 354.926 418.047 355.113 417.516 355.488C416.984 355.863 416.57 356.355 416.273 356.965V366H414.105V353.32H416.156ZM426.832 359.555C426.832 357.578 427.289 356.008 428.203 354.844C429.117 353.672 430.328 353.086 431.836 353.086C433.383 353.086 434.59 353.633 435.457 354.727L435.562 353.32H437.543V365.695C437.543 367.336 437.055 368.629 436.078 369.574C435.109 370.52 433.805 370.992 432.164 370.992C431.25 370.992 430.355 370.797 429.48 370.406C428.605 370.016 427.938 369.48 427.477 368.801L428.602 367.5C429.531 368.648 430.668 369.223 432.012 369.223C433.066 369.223 433.887 368.926 434.473 368.332C435.066 367.738 435.363 366.902 435.363 365.824V364.734C434.496 365.734 433.312 366.234 431.812 366.234C430.328 366.234 429.125 365.637 428.203 364.441C427.289 363.246 426.832 361.617 426.832 359.555ZM429.012 359.801C429.012 361.23 429.305 362.355 429.891 363.176C430.477 363.988 431.297 364.395 432.352 364.395C433.719 364.395 434.723 363.773 435.363 362.531V356.742C434.699 355.531 433.703 354.926 432.375 354.926C431.32 354.926 430.496 355.336 429.902 356.156C429.309 356.977 429.012 358.191 429.012 359.801ZM449.719 350.25V353.32H452.086V354.996H449.719V362.859C449.719 363.367 449.824 363.75 450.035 364.008C450.246 364.258 450.605 364.383 451.113 364.383C451.363 364.383 451.707 364.336 452.145 364.242V366C451.574 366.156 451.02 366.234 450.48 366.234C449.512 366.234 448.781 365.941 448.289 365.355C447.797 364.77 447.551 363.938 447.551 362.859V354.996H445.242V353.32H447.551V350.25H449.719ZM456.984 366H454.816V353.32H456.984V366ZM454.641 349.957C454.641 349.605 454.746 349.309 454.957 349.066C455.176 348.824 455.496 348.703 455.918 348.703C456.34 348.703 456.66 348.824 456.879 349.066C457.098 349.309 457.207 349.605 457.207 349.957C457.207 350.309 457.098 350.602 456.879 350.836C456.66 351.07 456.34 351.188 455.918 351.188C455.496 351.188 455.176 351.07 454.957 350.836C454.746 350.602 454.641 350.309 454.641 349.957ZM462.516 353.32L462.586 354.914C463.555 353.695 464.82 353.086 466.383 353.086C469.062 353.086 470.414 354.598 470.438 357.621V366H468.27V357.609C468.262 356.695 468.051 356.02 467.637 355.582C467.23 355.145 466.594 354.926 465.727 354.926C465.023 354.926 464.406 355.113 463.875 355.488C463.344 355.863 462.93 356.355 462.633 356.965V366H460.465V353.32H462.516ZM484.746 364.465C485.52 364.465 486.195 364.23 486.773 363.762C487.352 363.293 487.672 362.707 487.734 362.004H489.785C489.746 362.73 489.496 363.422 489.035 364.078C488.574 364.734 487.957 365.258 487.184 365.648C486.418 366.039 485.605 366.234 484.746 366.234C483.02 366.234 481.645 365.66 480.621 364.512C479.605 363.355 479.098 361.777 479.098 359.777V359.414C479.098 358.18 479.324 357.082 479.777 356.121C480.23 355.16 480.879 354.414 481.723 353.883C482.574 353.352 483.578 353.086 484.734 353.086C486.156 353.086 487.336 353.512 488.273 354.363C489.219 355.215 489.723 356.32 489.785 357.68H487.734C487.672 356.859 487.359 356.188 486.797 355.664C486.242 355.133 485.555 354.867 484.734 354.867C483.633 354.867 482.777 355.266 482.168 356.062C481.566 356.852 481.266 357.996 481.266 359.496V359.906C481.266 361.367 481.566 362.492 482.168 363.281C482.77 364.07 483.629 364.465 484.746 364.465ZM494.391 354.855C495.352 353.676 496.602 353.086 498.141 353.086C500.82 353.086 502.172 354.598 502.195 357.621V366H500.027V357.609C500.02 356.695 499.809 356.02 499.395 355.582C498.988 355.145 498.352 354.926 497.484 354.926C496.781 354.926 496.164 355.113 495.633 355.488C495.102 355.863 494.688 356.355 494.391 356.965V366H492.223V348H494.391V354.855ZM507.797 366H505.629V353.32H507.797V366ZM505.453 349.957C505.453 349.605 505.559 349.309 505.77 349.066C505.988 348.824 506.309 348.703 506.73 348.703C507.152 348.703 507.473 348.824 507.691 349.066C507.91 349.309 508.02 349.605 508.02 349.957C508.02 350.309 507.91 350.602 507.691 350.836C507.473 351.07 507.152 351.188 506.73 351.188C506.309 351.188 505.988 351.07 505.77 350.836C505.559 350.602 505.453 350.309 505.453 349.957ZM520.172 350.25V353.32H522.539V354.996H520.172V362.859C520.172 363.367 520.277 363.75 520.488 364.008C520.699 364.258 521.059 364.383 521.566 364.383C521.816 364.383 522.16 364.336 522.598 364.242V366C522.027 366.156 521.473 366.234 520.934 366.234C519.965 366.234 519.234 365.941 518.742 365.355C518.25 364.77 518.004 363.938 518.004 362.859V354.996H515.695V353.32H518.004V350.25H520.172ZM527.438 366H525.27V353.32H527.438V366ZM525.094 349.957C525.094 349.605 525.199 349.309 525.41 349.066C525.629 348.824 525.949 348.703 526.371 348.703C526.793 348.703 527.113 348.824 527.332 349.066C527.551 349.309 527.66 349.605 527.66 349.957C527.66 350.309 527.551 350.602 527.332 350.836C527.113 351.07 526.793 351.188 526.371 351.188C525.949 351.188 525.629 351.07 525.41 350.836C525.199 350.602 525.094 350.309 525.094 349.957ZM536.18 366.234C534.461 366.234 533.062 365.672 531.984 364.547C530.906 363.414 530.367 361.902 530.367 360.012V359.613C530.367 358.355 530.605 357.234 531.082 356.25C531.566 355.258 532.238 354.484 533.098 353.93C533.965 353.367 534.902 353.086 535.91 353.086C537.559 353.086 538.84 353.629 539.754 354.715C540.668 355.801 541.125 357.355 541.125 359.379V360.281H532.535C532.566 361.531 532.93 362.543 533.625 363.316C534.328 364.082 535.219 364.465 536.297 364.465C537.062 364.465 537.711 364.309 538.242 363.996C538.773 363.684 539.238 363.27 539.637 362.754L540.961 363.785C539.898 365.418 538.305 366.234 536.18 366.234ZM535.91 354.867C535.035 354.867 534.301 355.188 533.707 355.828C533.113 356.461 532.746 357.352 532.605 358.5H538.957V358.336C538.895 357.234 538.598 356.383 538.066 355.781C537.535 355.172 536.816 354.867 535.91 354.867ZM535.02 348.363H536.801L540.199 351.445H537.891L535.91 349.582L533.918 351.445H531.598L535.02 348.363ZM540.996 346.336H543.34L540.984 349.371H539.332L540.996 346.336ZM546.586 350.25V353.32H548.953V354.996H546.586V362.859C546.586 363.367 546.691 363.75 546.902 364.008C547.113 364.258 547.473 364.383 547.98 364.383C548.23 364.383 548.574 364.336 549.012 364.242V366C548.441 366.156 547.887 366.234 547.348 366.234C546.379 366.234 545.648 365.941 545.156 365.355C544.664 364.77 544.418 363.938 544.418 362.859V354.996H542.109V353.32H544.418V350.25H546.586ZM562.535 364.465C563.309 364.465 563.984 364.23 564.562 363.762C565.141 363.293 565.461 362.707 565.523 362.004H567.574C567.535 362.73 567.285 363.422 566.824 364.078C566.363 364.734 565.746 365.258 564.973 365.648C564.207 366.039 563.395 366.234 562.535 366.234C560.809 366.234 559.434 365.66 558.41 364.512C557.395 363.355 556.887 361.777 556.887 359.777V359.414C556.887 358.18 557.113 357.082 557.566 356.121C558.02 355.16 558.668 354.414 559.512 353.883C560.363 353.352 561.367 353.086 562.523 353.086C563.945 353.086 565.125 353.512 566.062 354.363C567.008 355.215 567.512 356.32 567.574 357.68H565.523C565.461 356.859 565.148 356.188 564.586 355.664C564.031 355.133 563.344 354.867 562.523 354.867C561.422 354.867 560.566 355.266 559.957 356.062C559.355 356.852 559.055 357.996 559.055 359.496V359.906C559.055 361.367 559.355 362.492 559.957 363.281C560.559 364.07 561.418 364.465 562.535 364.465ZM577.84 364.746C576.996 365.738 575.758 366.234 574.125 366.234C572.773 366.234 571.742 365.844 571.031 365.062C570.328 364.273 569.973 363.109 569.965 361.57V353.32H572.133V361.512C572.133 363.434 572.914 364.395 574.477 364.395C576.133 364.395 577.234 363.777 577.781 362.543V353.32H579.949V366H577.887L577.84 364.746ZM574.289 351.27L574.277 349.477C574.863 349.438 575.293 349.359 575.566 349.242C575.84 349.125 575.977 348.914 575.977 348.609C575.977 348.305 575.797 348.078 575.438 347.93C575.086 347.773 574.617 347.695 574.031 347.695L574.113 346.453C575.277 346.453 576.16 346.656 576.762 347.062C577.363 347.461 577.664 347.992 577.664 348.656C577.664 349.133 577.512 349.527 577.207 349.84C576.902 350.152 576.449 350.352 575.848 350.438L575.836 351.27H574.289ZM591.082 366C590.957 365.75 590.855 365.305 590.777 364.664C589.77 365.711 588.566 366.234 587.168 366.234C585.918 366.234 584.891 365.883 584.086 365.18C583.289 364.469 582.891 363.57 582.891 362.484C582.891 361.164 583.391 360.141 584.391 359.414C585.398 358.68 586.812 358.312 588.633 358.312H590.742V357.316C590.742 356.559 590.516 355.957 590.062 355.512C589.609 355.059 588.941 354.832 588.059 354.832C587.285 354.832 586.637 355.027 586.113 355.418C585.59 355.809 585.328 356.281 585.328 356.836H583.148C583.148 356.203 583.371 355.594 583.816 355.008C584.27 354.414 584.879 353.945 585.645 353.602C586.418 353.258 587.266 353.086 588.188 353.086C589.648 353.086 590.793 353.453 591.621 354.188C592.449 354.914 592.879 355.918 592.91 357.199V363.035C592.91 364.199 593.059 365.125 593.355 365.812V366H591.082ZM587.484 364.348C588.164 364.348 588.809 364.172 589.418 363.82C590.027 363.469 590.469 363.012 590.742 362.449V359.848H589.043C586.387 359.848 585.059 360.625 585.059 362.18C585.059 362.859 585.285 363.391 585.738 363.773C586.191 364.156 586.773 364.348 587.484 364.348ZM604.312 353.32L604.383 354.914C605.352 353.695 606.617 353.086 608.18 353.086C610.859 353.086 612.211 354.598 612.234 357.621V366H610.066V357.609C610.059 356.695 609.848 356.02 609.434 355.582C609.027 355.145 608.391 354.926 607.523 354.926C606.82 354.926 606.203 355.113 605.672 355.488C605.141 355.863 604.727 356.355 604.43 356.965V366H602.262V353.32H604.312ZM617.672 354.855C618.633 353.676 619.883 353.086 621.422 353.086C624.102 353.086 625.453 354.598 625.477 357.621V366H623.309V357.609C623.301 356.695 623.09 356.02 622.676 355.582C622.27 355.145 621.633 354.926 620.766 354.926C620.062 354.926 619.445 355.113 618.914 355.488C618.383 355.863 617.969 356.355 617.672 356.965V366H615.504V348H617.672V354.855ZM636.551 366C636.426 365.75 636.324 365.305 636.246 364.664C635.238 365.711 634.035 366.234 632.637 366.234C631.387 366.234 630.359 365.883 629.555 365.18C628.758 364.469 628.359 363.57 628.359 362.484C628.359 361.164 628.859 360.141 629.859 359.414C630.867 358.68 632.281 358.312 634.102 358.312H636.211V357.316C636.211 356.559 635.984 355.957 635.531 355.512C635.078 355.059 634.41 354.832 633.527 354.832C632.754 354.832 632.105 355.027 631.582 355.418C631.059 355.809 630.797 356.281 630.797 356.836H628.617C628.617 356.203 628.84 355.594 629.285 355.008C629.738 354.414 630.348 353.945 631.113 353.602C631.887 353.258 632.734 353.086 633.656 353.086C635.117 353.086 636.262 353.453 637.09 354.188C637.918 354.914 638.348 355.918 638.379 357.199V363.035C638.379 364.199 638.527 365.125 638.824 365.812V366H636.551ZM632.953 364.348C633.633 364.348 634.277 364.172 634.887 363.82C635.496 363.469 635.938 363.012 636.211 362.449V359.848H634.512C631.855 359.848 630.527 360.625 630.527 362.18C630.527 362.859 630.754 363.391 631.207 363.773C631.66 364.156 632.242 364.348 632.953 364.348ZM637.441 351.211V351.328H635.648L633.891 349.336L632.145 351.328H630.352V351.188L633.234 348H634.547L637.441 351.211ZM643.828 353.32L643.898 354.914C644.867 353.695 646.133 353.086 647.695 353.086C650.375 353.086 651.727 354.598 651.75 357.621V366H649.582V357.609C649.574 356.695 649.363 356.02 648.949 355.582C648.543 355.145 647.906 354.926 647.039 354.926C646.336 354.926 645.719 355.113 645.188 355.488C644.656 355.863 644.242 356.355 643.945 356.965V366H641.777V353.32H643.828ZM665.156 363.059L668.297 353.32H670.512L665.965 366H664.312L659.719 353.32H661.934L665.156 363.059ZM674.953 366H672.785V353.32H674.953V366ZM672.609 349.957C672.609 349.605 672.715 349.309 672.926 349.066C673.145 348.824 673.465 348.703 673.887 348.703C674.309 348.703 674.629 348.824 674.848 349.066C675.066 349.309 675.176 349.605 675.176 349.957C675.176 350.309 675.066 350.602 674.848 350.836C674.629 351.07 674.309 351.188 673.887 351.188C673.465 351.188 673.145 351.07 672.926 350.836C672.715 350.602 672.609 350.309 672.609 349.957ZM683.695 366.234C681.977 366.234 680.578 365.672 679.5 364.547C678.422 363.414 677.883 361.902 677.883 360.012V359.613C677.883 358.355 678.121 357.234 678.598 356.25C679.082 355.258 679.754 354.484 680.613 353.93C681.48 353.367 682.418 353.086 683.426 353.086C685.074 353.086 686.355 353.629 687.27 354.715C688.184 355.801 688.641 357.355 688.641 359.379V360.281H680.051C680.082 361.531 680.445 362.543 681.141 363.316C681.844 364.082 682.734 364.465 683.812 364.465C684.578 364.465 685.227 364.309 685.758 363.996C686.289 363.684 686.754 363.27 687.152 362.754L688.477 363.785C687.414 365.418 685.82 366.234 683.695 366.234ZM683.426 354.867C682.551 354.867 681.816 355.188 681.223 355.828C680.629 356.461 680.262 357.352 680.121 358.5H686.473V358.336C686.41 357.234 686.113 356.383 685.582 355.781C685.051 355.172 684.332 354.867 683.426 354.867ZM686.965 351.211V351.328H685.172L683.414 349.336L681.668 351.328H679.875V351.188L682.758 348H684.07L686.965 351.211ZM693.211 353.32L693.281 354.914C694.25 353.695 695.516 353.086 697.078 353.086C699.758 353.086 701.109 354.598 701.133 357.621V366H698.965V357.609C698.957 356.695 698.746 356.02 698.332 355.582C697.926 355.145 697.289 354.926 696.422 354.926C695.719 354.926 695.102 355.113 694.57 355.488C694.039 355.863 693.625 356.355 693.328 356.965V366H691.16V353.32H693.211Z" fill="black"/>
<path d="M95.3203 252H93.0586L84.4688 238.852V252H82.207V234.938H84.4688L93.082 248.145V234.938H95.3203V252ZM101.145 240.855C102.105 239.676 103.355 239.086 104.895 239.086C107.574 239.086 108.926 240.598 108.949 243.621V252H106.781V243.609C106.773 242.695 106.562 242.02 106.148 241.582C105.742 241.145 105.105 240.926 104.238 240.926C103.535 240.926 102.918 241.113 102.387 241.488C101.855 241.863 101.441 242.355 101.145 242.965V252H98.9766V234H101.145V240.855ZM120.023 252C119.898 251.75 119.797 251.305 119.719 250.664C118.711 251.711 117.508 252.234 116.109 252.234C114.859 252.234 113.832 251.883 113.027 251.18C112.23 250.469 111.832 249.57 111.832 248.484C111.832 247.164 112.332 246.141 113.332 245.414C114.34 244.68 115.754 244.312 117.574 244.312H119.684V243.316C119.684 242.559 119.457 241.957 119.004 241.512C118.551 241.059 117.883 240.832 117 240.832C116.227 240.832 115.578 241.027 115.055 241.418C114.531 241.809 114.27 242.281 114.27 242.836H112.09C112.09 242.203 112.312 241.594 112.758 241.008C113.211 240.414 113.82 239.945 114.586 239.602C115.359 239.258 116.207 239.086 117.129 239.086C118.59 239.086 119.734 239.453 120.562 240.188C121.391 240.914 121.82 241.918 121.852 243.199V249.035C121.852 250.199 122 251.125 122.297 251.812V252H120.023ZM116.426 250.348C117.105 250.348 117.75 250.172 118.359 249.82C118.969 249.469 119.41 249.012 119.684 248.449V245.848H117.984C115.328 245.848 114 246.625 114 248.18C114 248.859 114.227 249.391 114.68 249.773C115.133 250.156 115.715 250.348 116.426 250.348ZM120.914 237.211V237.328H119.121L117.363 235.336L115.617 237.328H113.824V237.188L116.707 234H118.02L120.914 237.211ZM127.301 239.32L127.371 240.914C128.34 239.695 129.605 239.086 131.168 239.086C133.848 239.086 135.199 240.598 135.223 243.621V252H133.055V243.609C133.047 242.695 132.836 242.02 132.422 241.582C132.016 241.145 131.379 240.926 130.512 240.926C129.809 240.926 129.191 241.113 128.66 241.488C128.129 241.863 127.715 242.355 127.418 242.965V252H125.25V239.32H127.301ZM148.629 249.059L151.77 239.32H153.984L149.438 252H147.785L143.191 239.32H145.406L148.629 249.059ZM158.426 252H156.258V239.32H158.426V252ZM156.082 235.957C156.082 235.605 156.188 235.309 156.398 235.066C156.617 234.824 156.938 234.703 157.359 234.703C157.781 234.703 158.102 234.824 158.32 235.066C158.539 235.309 158.648 235.605 158.648 235.957C158.648 236.309 158.539 236.602 158.32 236.836C158.102 237.07 157.781 237.188 157.359 237.188C156.938 237.188 156.617 237.07 156.398 236.836C156.188 236.602 156.082 236.309 156.082 235.957ZM167.168 252.234C165.449 252.234 164.051 251.672 162.973 250.547C161.895 249.414 161.355 247.902 161.355 246.012V245.613C161.355 244.355 161.594 243.234 162.07 242.25C162.555 241.258 163.227 240.484 164.086 239.93C164.953 239.367 165.891 239.086 166.898 239.086C168.547 239.086 169.828 239.629 170.742 240.715C171.656 241.801 172.113 243.355 172.113 245.379V246.281H163.523C163.555 247.531 163.918 248.543 164.613 249.316C165.316 250.082 166.207 250.465 167.285 250.465C168.051 250.465 168.699 250.309 169.23 249.996C169.762 249.684 170.227 249.27 170.625 248.754L171.949 249.785C170.887 251.418 169.293 252.234 167.168 252.234ZM166.898 240.867C166.023 240.867 165.289 241.188 164.695 241.828C164.102 242.461 163.734 243.352 163.594 244.5H169.945V244.336C169.883 243.234 169.586 242.383 169.055 241.781C168.523 241.172 167.805 240.867 166.898 240.867ZM170.438 237.211V237.328H168.645L166.887 235.336L165.141 237.328H163.348V237.188L166.23 234H167.543L170.438 237.211ZM176.684 239.32L176.754 240.914C177.723 239.695 178.988 239.086 180.551 239.086C183.23 239.086 184.582 240.598 184.605 243.621V252H182.438V243.609C182.43 242.695 182.219 242.02 181.805 241.582C181.398 241.145 180.762 240.926 179.895 240.926C179.191 240.926 178.574 241.113 178.043 241.488C177.512 241.863 177.098 242.355 176.801 242.965V252H174.633V239.32H176.684ZM194.262 253.465H192.398L199.523 234.938H201.375L194.262 253.465ZM221.332 236.789H215.848V252H213.609V236.789H208.137V234.938H221.332V236.789ZM227.613 252.234C225.895 252.234 224.496 251.672 223.418 250.547C222.34 249.414 221.801 247.902 221.801 246.012V245.613C221.801 244.355 222.039 243.234 222.516 242.25C223 241.258 223.672 240.484 224.531 239.93C225.398 239.367 226.336 239.086 227.344 239.086C228.992 239.086 230.273 239.629 231.188 240.715C232.102 241.801 232.559 243.355 232.559 245.379V246.281H223.969C224 247.531 224.363 248.543 225.059 249.316C225.762 250.082 226.652 250.465 227.73 250.465C228.496 250.465 229.145 250.309 229.676 249.996C230.207 249.684 230.672 249.27 231.07 248.754L232.395 249.785C231.332 251.418 229.738 252.234 227.613 252.234ZM227.344 240.867C226.469 240.867 225.734 241.188 225.141 241.828C224.547 242.461 224.18 243.352 224.039 244.5H230.391V244.336C230.328 243.234 230.031 242.383 229.5 241.781C228.969 241.172 228.25 240.867 227.344 240.867ZM230.883 237.211V237.328H229.09L227.332 235.336L225.586 237.328H223.793V237.188L226.676 234H227.988L230.883 237.211ZM237.129 239.32L237.199 240.914C238.168 239.695 239.434 239.086 240.996 239.086C243.676 239.086 245.027 240.598 245.051 243.621V252H242.883V243.609C242.875 242.695 242.664 242.02 242.25 241.582C241.844 241.145 241.207 240.926 240.34 240.926C239.637 240.926 239.02 241.113 238.488 241.488C237.957 241.863 237.543 242.355 237.246 242.965V252H235.078V239.32H237.129ZM256.324 239.32L256.395 240.914C257.363 239.695 258.629 239.086 260.191 239.086C262.871 239.086 264.223 240.598 264.246 243.621V252H262.078V243.609C262.07 242.695 261.859 242.02 261.445 241.582C261.039 241.145 260.402 240.926 259.535 240.926C258.832 240.926 258.215 241.113 257.684 241.488C257.152 241.863 256.738 242.355 256.441 242.965V252H254.273V239.32H256.324ZM269.684 240.855C270.645 239.676 271.895 239.086 273.434 239.086C276.113 239.086 277.465 240.598 277.488 243.621V252H275.32V243.609C275.312 242.695 275.102 242.02 274.688 241.582C274.281 241.145 273.645 240.926 272.777 240.926C272.074 240.926 271.457 241.113 270.926 241.488C270.395 241.863 269.98 242.355 269.684 242.965V252H267.516V234H269.684V240.855ZM288.562 252C288.438 251.75 288.336 251.305 288.258 250.664C287.25 251.711 286.047 252.234 284.648 252.234C283.398 252.234 282.371 251.883 281.566 251.18C280.77 250.469 280.371 249.57 280.371 248.484C280.371 247.164 280.871 246.141 281.871 245.414C282.879 244.68 284.293 244.312 286.113 244.312H288.223V243.316C288.223 242.559 287.996 241.957 287.543 241.512C287.09 241.059 286.422 240.832 285.539 240.832C284.766 240.832 284.117 241.027 283.594 241.418C283.07 241.809 282.809 242.281 282.809 242.836H280.629C280.629 242.203 280.852 241.594 281.297 241.008C281.75 240.414 282.359 239.945 283.125 239.602C283.898 239.258 284.746 239.086 285.668 239.086C287.129 239.086 288.273 239.453 289.102 240.188C289.93 240.914 290.359 241.918 290.391 243.199V249.035C290.391 250.199 290.539 251.125 290.836 251.812V252H288.562ZM284.965 250.348C285.645 250.348 286.289 250.172 286.898 249.82C287.508 249.469 287.949 249.012 288.223 248.449V245.848H286.523C283.867 245.848 282.539 246.625 282.539 248.18C282.539 248.859 282.766 249.391 283.219 249.773C283.672 250.156 284.254 250.348 284.965 250.348ZM289.453 237.211V237.328H287.66L285.902 235.336L284.156 237.328H282.363V237.188L285.246 234H286.559L289.453 237.211ZM295.84 239.32L295.91 240.914C296.879 239.695 298.145 239.086 299.707 239.086C302.387 239.086 303.738 240.598 303.762 243.621V252H301.594V243.609C301.586 242.695 301.375 242.02 300.961 241.582C300.555 241.145 299.918 240.926 299.051 240.926C298.348 240.926 297.73 241.113 297.199 241.488C296.668 241.863 296.254 242.355 295.957 242.965V252H293.789V239.32H295.84ZM317.168 249.059L320.309 239.32H322.523L317.977 252H316.324L311.73 239.32H313.945L317.168 249.059ZM326.965 252H324.797V239.32H326.965V252ZM324.621 235.957C324.621 235.605 324.727 235.309 324.938 235.066C325.156 234.824 325.477 234.703 325.898 234.703C326.32 234.703 326.641 234.824 326.859 235.066C327.078 235.309 327.188 235.605 327.188 235.957C327.188 236.309 327.078 236.602 326.859 236.836C326.641 237.07 326.32 237.188 325.898 237.188C325.477 237.188 325.156 237.07 324.938 236.836C324.727 236.602 324.621 236.309 324.621 235.957ZM335.707 252.234C333.988 252.234 332.59 251.672 331.512 250.547C330.434 249.414 329.895 247.902 329.895 246.012V245.613C329.895 244.355 330.133 243.234 330.609 242.25C331.094 241.258 331.766 240.484 332.625 239.93C333.492 239.367 334.43 239.086 335.438 239.086C337.086 239.086 338.367 239.629 339.281 240.715C340.195 241.801 340.652 243.355 340.652 245.379V246.281H332.062C332.094 247.531 332.457 248.543 333.152 249.316C333.855 250.082 334.746 250.465 335.824 250.465C336.59 250.465 337.238 250.309 337.77 249.996C338.301 249.684 338.766 249.27 339.164 248.754L340.488 249.785C339.426 251.418 337.832 252.234 335.707 252.234ZM335.438 240.867C334.562 240.867 333.828 241.188 333.234 241.828C332.641 242.461 332.273 243.352 332.133 244.5H338.484V244.336C338.422 243.234 338.125 242.383 337.594 241.781C337.062 241.172 336.344 240.867 335.438 240.867ZM338.977 237.211V237.328H337.184L335.426 235.336L333.68 237.328H331.887V237.188L334.77 234H336.082L338.977 237.211ZM345.223 239.32L345.293 240.914C346.262 239.695 347.527 239.086 349.09 239.086C351.77 239.086 353.121 240.598 353.145 243.621V252H350.977V243.609C350.969 242.695 350.758 242.02 350.344 241.582C349.938 241.145 349.301 240.926 348.434 240.926C347.73 240.926 347.113 241.113 346.582 241.488C346.051 241.863 345.637 242.355 345.34 242.965V252H343.172V239.32H345.223Z" fill="black"/>
</g>
<defs>
<filter id="filter0_d" x="97" y="132" width="153" height="71" filterUnits="userSpaceOnUse" color-interpolation-filters="sRGB">
<feFlood flood-opacity="0" result="BackgroundImageFix"/>
<feColorMatrix in="SourceAlpha" type="matrix" values="0 0 0 0 0 0 0 0 0 0 0 0 0 0 0 0 0 0 127 0" result="hardAlpha"/>
<feOffset dy="4"/>
<feGaussianBlur stdDeviation="2"/>
<feComposite in2="hardAlpha" operator="out"/>
<feColorMatrix type="matrix" values="0 0 0 0 0 0 0 0 0 0 0 0 0 0 0 0 0 0 0.25 0"/>
<feBlend mode="normal" in2="BackgroundImageFix" result="effect1_dropShadow"/>
<feBlend mode="normal" in="SourceGraphic" in2="effect1_dropShadow" result="shape"/>
</filter>
<clipPath id="clip0">
<rect width="1440" height="1024" fill="white"/>
</clipPath>
</defs>
</svg>
