<svg width="1440" height="1024" viewBox="0 0 1440 1024" fill="none" xmlns="http://www.w3.org/2000/svg">
<rect width="1440" height="1024" fill="#E5E5E5"/>
<g clip-path="url(#clip0)">
<rect width="1440" height="1024" fill="white"/>
<rect width="1440" height="199" fill="#4DDFFF"/>
<rect x="-1" y="825" width="1440" height="199" fill="#4DDFFF"/>
<path d="M81.1094 917.789H75.625V933H73.3867V917.789H67.9141V915.938H81.1094V917.789ZM85.4688 921.855C86.4297 920.676 87.6797 920.086 89.2188 920.086C91.8984 920.086 93.25 921.598 93.2734 924.621V933H91.1055V924.609C91.0977 923.695 90.8867 923.02 90.4727 922.582C90.0664 922.145 89.4297 921.926 88.5625 921.926C87.8594 921.926 87.2422 922.113 86.7109 922.488C86.1797 922.863 85.7656 923.355 85.4688 923.965V933H83.3008V915H85.4688V921.855ZM95.9453 926.543C95.9453 925.301 96.1875 924.184 96.6719 923.191C97.1641 922.199 97.8438 921.434 98.7109 920.895C99.5859 920.355 100.582 920.086 101.699 920.086C103.426 920.086 104.82 920.684 105.883 921.879C106.953 923.074 107.488 924.664 107.488 926.648V926.801C107.488 928.035 107.25 929.145 106.773 930.129C106.305 931.105 105.629 931.867 104.746 932.414C103.871 932.961 102.863 933.234 101.723 933.234C100.004 933.234 98.6094 932.637 97.5391 931.441C96.4766 930.246 95.9453 928.664 95.9453 926.695V926.543ZM98.125 926.801C98.125 928.207 98.4492 929.336 99.0977 930.188C99.7539 931.039 100.629 931.465 101.723 931.465C102.824 931.465 103.699 931.035 104.348 930.176C104.996 929.309 105.32 928.098 105.32 926.543C105.32 925.152 104.988 924.027 104.324 923.168C103.668 922.301 102.793 921.867 101.699 921.867C100.629 921.867 99.7656 922.293 99.1094 923.145C98.4531 923.996 98.125 925.215 98.125 926.801ZM105.168 918.211V918.328H103.375L101.617 916.336L99.8711 918.328H98.0781V918.188L100.961 915H102.273L105.168 918.211ZM112.258 920.32L112.328 921.914C113.297 920.695 114.562 920.086 116.125 920.086C118.805 920.086 120.156 921.598 120.18 924.621V933H118.012V924.609C118.004 923.695 117.793 923.02 117.379 922.582C116.973 922.145 116.336 921.926 115.469 921.926C114.766 921.926 114.148 922.113 113.617 922.488C113.086 922.863 112.672 923.355 112.375 923.965V933H110.207V920.32H112.258ZM122.934 926.555C122.934 924.578 123.391 923.008 124.305 921.844C125.219 920.672 126.43 920.086 127.938 920.086C129.484 920.086 130.691 920.633 131.559 921.727L131.664 920.32H133.645V932.695C133.645 934.336 133.156 935.629 132.18 936.574C131.211 937.52 129.906 937.992 128.266 937.992C127.352 937.992 126.457 937.797 125.582 937.406C124.707 937.016 124.039 936.48 123.578 935.801L124.703 934.5C125.633 935.648 126.77 936.223 128.113 936.223C129.168 936.223 129.988 935.926 130.574 935.332C131.168 934.738 131.465 933.902 131.465 932.824V931.734C130.598 932.734 129.414 933.234 127.914 933.234C126.43 933.234 125.227 932.637 124.305 931.441C123.391 930.246 122.934 928.617 122.934 926.555ZM125.113 926.801C125.113 928.23 125.406 929.355 125.992 930.176C126.578 930.988 127.398 931.395 128.453 931.395C129.82 931.395 130.824 930.773 131.465 929.531V923.742C130.801 922.531 129.805 921.926 128.477 921.926C127.422 921.926 126.598 922.336 126.004 923.156C125.41 923.977 125.113 925.191 125.113 926.801ZM145.82 917.25V920.32H148.188V921.996H145.82V929.859C145.82 930.367 145.926 930.75 146.137 931.008C146.348 931.258 146.707 931.383 147.215 931.383C147.465 931.383 147.809 931.336 148.246 931.242V933C147.676 933.156 147.121 933.234 146.582 933.234C145.613 933.234 144.883 932.941 144.391 932.355C143.898 931.77 143.652 930.938 143.652 929.859V921.996H141.344V920.32H143.652V917.25H145.82ZM153.086 933H150.918V920.32H153.086V933ZM150.742 916.957C150.742 916.605 150.848 916.309 151.059 916.066C151.277 915.824 151.598 915.703 152.02 915.703C152.441 915.703 152.762 915.824 152.98 916.066C153.199 916.309 153.309 916.605 153.309 916.957C153.309 917.309 153.199 917.602 152.98 917.836C152.762 918.07 152.441 918.188 152.02 918.188C151.598 918.188 151.277 918.07 151.059 917.836C150.848 917.602 150.742 917.309 150.742 916.957ZM158.617 920.32L158.688 921.914C159.656 920.695 160.922 920.086 162.484 920.086C165.164 920.086 166.516 921.598 166.539 924.621V933H164.371V924.609C164.363 923.695 164.152 923.02 163.738 922.582C163.332 922.145 162.695 921.926 161.828 921.926C161.125 921.926 160.508 922.113 159.977 922.488C159.445 922.863 159.031 923.355 158.734 923.965V933H156.566V920.32H158.617ZM178.117 933H175.949V915H178.117V933ZM183.953 933H181.785V920.32H183.953V933ZM181.609 916.957C181.609 916.605 181.715 916.309 181.926 916.066C182.145 915.824 182.465 915.703 182.887 915.703C183.309 915.703 183.629 915.824 183.848 916.066C184.066 916.309 184.176 916.605 184.176 916.957C184.176 917.309 184.066 917.602 183.848 917.836C183.629 918.07 183.309 918.188 182.887 918.188C182.465 918.188 182.145 918.07 181.926 917.836C181.715 917.602 181.609 917.309 181.609 916.957ZM192.695 933.234C190.977 933.234 189.578 932.672 188.5 931.547C187.422 930.414 186.883 928.902 186.883 927.012V926.613C186.883 925.355 187.121 924.234 187.598 923.25C188.082 922.258 188.754 921.484 189.613 920.93C190.48 920.367 191.418 920.086 192.426 920.086C194.074 920.086 195.355 920.629 196.27 921.715C197.184 922.801 197.641 924.355 197.641 926.379V927.281H189.051C189.082 928.531 189.445 929.543 190.141 930.316C190.844 931.082 191.734 931.465 192.812 931.465C193.578 931.465 194.227 931.309 194.758 930.996C195.289 930.684 195.754 930.27 196.152 929.754L197.477 930.785C196.414 932.418 194.82 933.234 192.695 933.234ZM192.426 921.867C191.551 921.867 190.816 922.188 190.223 922.828C189.629 923.461 189.262 924.352 189.121 925.5H195.473V925.336C195.41 924.234 195.113 923.383 194.582 922.781C194.051 922.172 193.332 921.867 192.426 921.867ZM195.965 918.211V918.328H194.172L192.414 916.336L190.668 918.328H188.875V918.188L191.758 915H193.07L195.965 918.211ZM202.211 920.32L202.281 921.914C203.25 920.695 204.516 920.086 206.078 920.086C208.758 920.086 210.109 921.598 210.133 924.621V933H207.965V924.609C207.957 923.695 207.746 923.02 207.332 922.582C206.926 922.145 206.289 921.926 205.422 921.926C204.719 921.926 204.102 922.113 203.57 922.488C203.039 922.863 202.625 923.355 202.328 923.965V933H200.16V920.32H202.211ZM221.523 921.855C222.484 920.676 223.734 920.086 225.273 920.086C227.953 920.086 229.305 921.598 229.328 924.621V933H227.16V924.609C227.152 923.695 226.941 923.02 226.527 922.582C226.121 922.145 225.484 921.926 224.617 921.926C223.914 921.926 223.297 922.113 222.766 922.488C222.234 922.863 221.82 923.355 221.523 923.965V933H219.355V915H221.523V921.855ZM237.836 933.234C236.117 933.234 234.719 932.672 233.641 931.547C232.562 930.414 232.023 928.902 232.023 927.012V926.613C232.023 925.355 232.262 924.234 232.738 923.25C233.223 922.258 233.895 921.484 234.754 920.93C235.621 920.367 236.559 920.086 237.566 920.086C239.215 920.086 240.496 920.629 241.41 921.715C242.324 922.801 242.781 924.355 242.781 926.379V927.281H234.191C234.223 928.531 234.586 929.543 235.281 930.316C235.984 931.082 236.875 931.465 237.953 931.465C238.719 931.465 239.367 931.309 239.898 930.996C240.43 930.684 240.895 930.27 241.293 929.754L242.617 930.785C241.555 932.418 239.961 933.234 237.836 933.234ZM237.566 921.867C236.691 921.867 235.957 922.188 235.363 922.828C234.77 923.461 234.402 924.352 234.262 925.5H240.613V925.336C240.551 924.234 240.254 923.383 239.723 922.781C239.191 922.172 238.473 921.867 237.566 921.867ZM241.105 918.211V918.328H239.312L237.555 916.336L235.809 918.328H234.016V918.188L236.898 915H238.211L241.105 918.211ZM236.23 935.871C236.23 935.52 236.336 935.223 236.547 934.98C236.766 934.738 237.086 934.617 237.508 934.617C237.93 934.617 238.25 934.738 238.469 934.98C238.688 935.223 238.797 935.52 238.797 935.871C238.797 936.223 238.688 936.516 238.469 936.75C238.25 936.984 237.93 937.102 237.508 937.102C237.086 937.102 236.766 936.984 236.547 936.75C236.336 936.516 236.23 936.223 236.23 935.871Z" fill="black"/>
<path d="M1114.85 939H1112.6V921.938H1114.85V939ZM1123.72 937.465C1124.5 937.465 1125.17 937.23 1125.75 936.762C1126.33 936.293 1126.65 935.707 1126.71 935.004H1128.76C1128.72 935.73 1128.47 936.422 1128.01 937.078C1127.55 937.734 1126.93 938.258 1126.16 938.648C1125.39 939.039 1124.58 939.234 1123.72 939.234C1122 939.234 1120.62 938.66 1119.6 937.512C1118.58 936.355 1118.07 934.777 1118.07 932.777V932.414C1118.07 931.18 1118.3 930.082 1118.75 929.121C1119.21 928.16 1119.86 927.414 1120.7 926.883C1121.55 926.352 1122.55 926.086 1123.71 926.086C1125.13 926.086 1126.31 926.512 1127.25 927.363C1128.2 928.215 1128.7 929.32 1128.76 930.68H1126.71C1126.65 929.859 1126.34 929.188 1125.77 928.664C1125.22 928.133 1124.53 927.867 1123.71 927.867C1122.61 927.867 1121.75 928.266 1121.14 929.062C1120.54 929.852 1120.24 930.996 1120.24 932.496V932.906C1120.24 934.367 1120.54 935.492 1121.14 936.281C1121.75 937.07 1122.61 937.465 1123.72 937.465ZM1130.62 932.543C1130.62 931.301 1130.87 930.184 1131.35 929.191C1131.84 928.199 1132.52 927.434 1133.39 926.895C1134.27 926.355 1135.26 926.086 1136.38 926.086C1138.11 926.086 1139.5 926.684 1140.56 927.879C1141.63 929.074 1142.17 930.664 1142.17 932.648V932.801C1142.17 934.035 1141.93 935.145 1141.45 936.129C1140.98 937.105 1140.31 937.867 1139.43 938.414C1138.55 938.961 1137.54 939.234 1136.4 939.234C1134.68 939.234 1133.29 938.637 1132.22 937.441C1131.16 936.246 1130.62 934.664 1130.62 932.695V932.543ZM1132.8 932.801C1132.8 934.207 1133.13 935.336 1133.78 936.188C1134.43 937.039 1135.31 937.465 1136.4 937.465C1137.5 937.465 1138.38 937.035 1139.03 936.176C1139.68 935.309 1140 934.098 1140 932.543C1140 931.152 1139.67 930.027 1139 929.168C1138.35 928.301 1137.47 927.867 1136.38 927.867C1135.31 927.867 1134.45 928.293 1133.79 929.145C1133.13 929.996 1132.8 931.215 1132.8 932.801ZM1146.94 926.32L1147.01 927.914C1147.98 926.695 1149.24 926.086 1150.8 926.086C1153.48 926.086 1154.84 927.598 1154.86 930.621V939H1152.69V930.609C1152.68 929.695 1152.47 929.02 1152.06 928.582C1151.65 928.145 1151.02 927.926 1150.15 927.926C1149.45 927.926 1148.83 928.113 1148.3 928.488C1147.77 928.863 1147.35 929.355 1147.05 929.965V939H1144.89V926.32H1146.94ZM1166.44 939H1164.27V921H1166.44V939ZM1172.27 939H1170.11V926.32H1172.27V939ZM1169.93 922.957C1169.93 922.605 1170.04 922.309 1170.25 922.066C1170.46 921.824 1170.79 921.703 1171.21 921.703C1171.63 921.703 1171.95 921.824 1172.17 922.066C1172.39 922.309 1172.5 922.605 1172.5 922.957C1172.5 923.309 1172.39 923.602 1172.17 923.836C1171.95 924.07 1171.63 924.188 1171.21 924.188C1170.79 924.188 1170.46 924.07 1170.25 923.836C1170.04 923.602 1169.93 923.309 1169.93 922.957ZM1181.02 939.234C1179.3 939.234 1177.9 938.672 1176.82 937.547C1175.74 936.414 1175.2 934.902 1175.2 933.012V932.613C1175.2 931.355 1175.44 930.234 1175.92 929.25C1176.4 928.258 1177.07 927.484 1177.93 926.93C1178.8 926.367 1179.74 926.086 1180.75 926.086C1182.39 926.086 1183.68 926.629 1184.59 927.715C1185.5 928.801 1185.96 930.355 1185.96 932.379V933.281H1177.37C1177.4 934.531 1177.77 935.543 1178.46 936.316C1179.16 937.082 1180.05 937.465 1181.13 937.465C1181.9 937.465 1182.55 937.309 1183.08 936.996C1183.61 936.684 1184.07 936.27 1184.47 935.754L1185.8 936.785C1184.73 938.418 1183.14 939.234 1181.02 939.234ZM1180.75 927.867C1179.87 927.867 1179.14 928.188 1178.54 928.828C1177.95 929.461 1177.58 930.352 1177.44 931.5H1183.79V931.336C1183.73 930.234 1183.43 929.383 1182.9 928.781C1182.37 928.172 1181.65 927.867 1180.75 927.867ZM1184.29 924.211V924.328H1182.49L1180.73 922.336L1178.99 924.328H1177.2V924.188L1180.08 921H1181.39L1184.29 924.211ZM1190.53 926.32L1190.6 927.914C1191.57 926.695 1192.84 926.086 1194.4 926.086C1197.08 926.086 1198.43 927.598 1198.45 930.621V939H1196.29V930.609C1196.28 929.695 1196.07 929.02 1195.65 928.582C1195.25 928.145 1194.61 927.926 1193.74 927.926C1193.04 927.926 1192.42 928.113 1191.89 928.488C1191.36 928.863 1190.95 929.355 1190.65 929.965V939H1188.48V926.32H1190.53ZM1211.21 933.129L1209.86 934.547V939H1207.69V921H1209.86V931.887L1211.02 930.492L1214.96 926.32H1217.6L1212.67 931.617L1218.18 939H1215.63L1211.21 933.129ZM1224.87 939.234C1223.15 939.234 1221.75 938.672 1220.67 937.547C1219.59 936.414 1219.05 934.902 1219.05 933.012V932.613C1219.05 931.355 1219.29 930.234 1219.77 929.25C1220.25 928.258 1220.93 927.484 1221.79 926.93C1222.65 926.367 1223.59 926.086 1224.6 926.086C1226.25 926.086 1227.53 926.629 1228.44 927.715C1229.36 928.801 1229.81 930.355 1229.81 932.379V933.281H1221.22C1221.25 934.531 1221.62 935.543 1222.31 936.316C1223.02 937.082 1223.91 937.465 1224.98 937.465C1225.75 937.465 1226.4 937.309 1226.93 936.996C1227.46 936.684 1227.93 936.27 1228.32 935.754L1229.65 936.785C1228.59 938.418 1226.99 939.234 1224.87 939.234ZM1224.6 927.867C1223.72 927.867 1222.99 928.188 1222.39 928.828C1221.8 929.461 1221.43 930.352 1221.29 931.5H1227.64V931.336C1227.58 930.234 1227.29 929.383 1226.75 928.781C1226.22 928.172 1225.5 927.867 1224.6 927.867ZM1223.71 921.363H1225.49L1228.89 924.445H1226.58L1224.6 922.582L1222.61 924.445H1220.29L1223.71 921.363ZM1229.68 919.336H1232.03L1229.67 922.371H1228.02L1229.68 919.336ZM1235.27 923.25V926.32H1237.64V927.996H1235.27V935.859C1235.27 936.367 1235.38 936.75 1235.59 937.008C1235.8 937.258 1236.16 937.383 1236.67 937.383C1236.92 937.383 1237.26 937.336 1237.7 937.242V939C1237.13 939.156 1236.57 939.234 1236.04 939.234C1235.07 939.234 1234.34 938.941 1233.84 938.355C1233.35 937.77 1233.11 936.938 1233.11 935.859V927.996H1230.8V926.32H1233.11V923.25H1235.27Z" fill="black"/>
<path d="M424.984 52.875V57.8672C426.781 57.6953 428.055 57.0781 428.805 56.0156C429.57 54.9375 429.953 53.25 429.953 50.9531H433.68C433.68 54.2344 432.984 56.6953 431.594 58.3359C430.219 59.9609 428.016 60.8672 424.984 61.0547V76.1016C424.969 79.2109 424.008 81.7812 422.102 83.8125C420.195 85.8438 417.594 87.0312 414.297 87.375L412.586 87.4688C408.852 87.4688 405.875 86.4609 403.656 84.4453C401.438 82.4297 400.312 79.6562 400.281 76.125V52.875H404.734V75.9844C404.734 78.4531 405.414 80.375 406.773 81.75C408.133 83.1094 410.07 83.7891 412.586 83.7891C415.133 83.7891 417.078 83.1094 418.422 81.75C419.781 80.3906 420.461 78.4766 420.461 76.0078V52.875H424.984ZM415.375 43.4531H420.625L414.344 50.3438H410.852L415.375 43.4531ZM460.562 87H456.039L438.859 60.7031V87H434.336V52.875H438.859L456.086 79.2891V52.875H460.562V87ZM493.75 82.5234C492.594 84.1797 490.977 85.4219 488.898 86.25C486.836 87.0625 484.43 87.4688 481.68 87.4688C478.898 87.4688 476.43 86.8203 474.273 85.5234C472.117 84.2109 470.445 82.3516 469.258 79.9453C468.086 77.5391 467.484 74.75 467.453 71.5781V68.6016C467.453 63.4609 468.648 59.4766 471.039 56.6484C473.445 53.8203 476.82 52.4062 481.164 52.4062C484.727 52.4062 487.594 53.3203 489.766 55.1484C491.938 56.9609 493.266 59.5391 493.75 62.8828H489.25C488.406 58.3672 485.719 56.1094 481.188 56.1094C478.172 56.1094 475.883 57.1719 474.32 59.2969C472.773 61.4062 471.992 64.4688 471.977 68.4844V71.2734C471.977 75.1016 472.852 78.1484 474.602 80.4141C476.352 82.6641 478.719 83.7891 481.703 83.7891C483.391 83.7891 484.867 83.6016 486.133 83.2266C487.398 82.8516 488.445 82.2188 489.273 81.3281V73.6641H481.375V70.0078H493.75V82.5234ZM513.18 87V52.875H522.812C525.781 52.875 528.406 53.5312 530.688 54.8438C532.969 56.1562 534.727 58.0234 535.961 60.4453C537.211 62.8672 537.844 65.6484 537.859 68.7891V70.9688C537.859 74.1875 537.234 77.0078 535.984 79.4297C534.75 81.8516 532.977 83.7109 530.664 85.0078C528.367 86.3047 525.688 86.9688 522.625 87H513.18ZM517.68 56.5781V83.3203H522.414C525.883 83.3203 528.578 82.2422 530.5 80.0859C532.438 77.9297 533.406 74.8594 533.406 70.875V68.8828C533.406 65.0078 532.492 62 530.664 59.8594C528.852 57.7031 526.273 56.6094 522.93 56.5781H517.68ZM568.703 52.875V76.0781C568.688 79.2969 567.672 81.9297 565.656 83.9766C563.656 86.0234 560.938 87.1719 557.5 87.4219L556.305 87.4688C552.57 87.4688 549.594 86.4609 547.375 84.4453C545.156 82.4297 544.031 79.6562 544 76.125V52.875H548.453V75.9844C548.453 78.4531 549.133 80.375 550.492 81.75C551.852 83.1094 553.789 83.7891 556.305 83.7891C558.852 83.7891 560.797 83.1094 562.141 81.75C563.5 80.3906 564.18 78.4766 564.18 76.0078V52.875H568.703ZM553.609 92.7422C553.609 92.0391 553.82 91.4453 554.242 90.9609C554.68 90.4766 555.32 90.2344 556.164 90.2344C557.008 90.2344 557.648 90.4766 558.086 90.9609C558.523 91.4453 558.742 92.0391 558.742 92.7422C558.742 93.4453 558.523 94.0312 558.086 94.5C557.648 94.9688 557.008 95.2031 556.164 95.2031C555.32 95.2031 554.68 94.9688 554.242 94.5C553.82 94.0312 553.609 93.4453 553.609 92.7422ZM602.031 87H597.508L580.328 60.7031V87H575.805V52.875H580.328L597.555 79.2891V52.875H602.031V87ZM635.219 82.5234C634.062 84.1797 632.445 85.4219 630.367 86.25C628.305 87.0625 625.898 87.4688 623.148 87.4688C620.367 87.4688 617.898 86.8203 615.742 85.5234C613.586 84.2109 611.914 82.3516 610.727 79.9453C609.555 77.5391 608.953 74.75 608.922 71.5781V68.6016C608.922 63.4609 610.117 59.4766 612.508 56.6484C614.914 53.8203 618.289 52.4062 622.633 52.4062C626.195 52.4062 629.062 53.3203 631.234 55.1484C633.406 56.9609 634.734 59.5391 635.219 62.8828H630.719C629.875 58.3672 627.188 56.1094 622.656 56.1094C619.641 56.1094 617.352 57.1719 615.789 59.2969C614.242 61.4062 613.461 64.4688 613.445 68.4844V71.2734C613.445 75.1016 614.32 78.1484 616.07 80.4141C617.82 82.6641 620.188 83.7891 623.172 83.7891C624.859 83.7891 626.336 83.6016 627.602 83.2266C628.867 82.8516 629.914 82.2188 630.742 81.3281V73.6641H622.844V70.0078H635.219V82.5234ZM680.711 71.0391C680.711 74.3359 680.188 77.1797 679.141 79.5703C678.094 81.9453 676.625 83.8047 674.734 85.1484L680.828 89.9297L677.758 92.7656L670.562 87.0469C669.438 87.3281 668.25 87.4688 667 87.4688C664.312 87.4688 661.93 86.8125 659.852 85.5C657.773 84.1719 656.156 82.2891 655 79.8516C653.859 77.3984 653.273 74.5625 653.242 71.3438V68.8828C653.242 65.6016 653.812 62.7031 654.953 60.1875C656.094 57.6719 657.703 55.75 659.781 54.4219C661.875 53.0781 664.266 52.4062 666.953 52.4062C669.703 52.4062 672.117 53.0703 674.195 54.3984C676.289 55.7266 677.898 57.6406 679.023 60.1406C680.148 62.625 680.711 65.5312 680.711 68.8594V71.0391ZM676.211 68.8359C676.211 64.8203 675.406 61.7266 673.797 59.5547C672.203 57.3672 669.922 56.2734 666.953 56.2734C664.125 56.2734 661.891 57.3594 660.25 59.5312C658.625 61.6875 657.789 64.6875 657.742 68.5312V71.0391C657.742 74.9453 658.555 78.0234 660.18 80.2734C661.82 82.5234 664.094 83.6484 667 83.6484C669.906 83.6484 672.156 82.5938 673.75 80.4844C675.344 78.3594 676.164 75.3203 676.211 71.3672V68.8359ZM711.672 52.875V76.0781C711.656 79.2969 710.641 81.9297 708.625 83.9766C706.625 86.0234 703.906 87.1719 700.469 87.4219L699.273 87.4688C695.539 87.4688 692.562 86.4609 690.344 84.4453C688.125 82.4297 687 79.6562 686.969 76.125V52.875H691.422V75.9844C691.422 78.4531 692.102 80.375 693.461 81.75C694.82 83.1094 696.758 83.7891 699.273 83.7891C701.82 83.7891 703.766 83.1094 705.109 81.75C706.469 80.3906 707.148 78.4766 707.148 76.0078V52.875H711.672ZM737.102 78.0938H722.805L719.594 87H714.953L727.984 52.875H731.922L744.977 87H740.359L737.102 78.0938ZM724.164 74.3906H735.766L729.953 58.4297L724.164 74.3906ZM728.594 50.2734L728.57 46.6875C729.742 46.6094 730.602 46.4531 731.148 46.2188C731.695 45.9844 731.969 45.5625 731.969 44.9531C731.969 44.3438 731.609 43.8906 730.891 43.5938C730.188 43.2812 729.25 43.125 728.078 43.125L728.242 40.6406C730.57 40.6406 732.336 41.0469 733.539 41.8594C734.742 42.6562 735.344 43.7188 735.344 45.0469C735.344 46 735.039 46.7891 734.43 47.4141C733.82 48.0391 732.914 48.4375 731.711 48.6094L731.688 50.2734H728.594ZM775.797 87H771.273L754.094 60.7031V87H749.57V52.875H754.094L771.32 79.2891V52.875H775.797V87ZM800.219 83.3203H816.391V87H795.695V52.875H800.219V83.3203ZM826.305 70.0078L835.211 52.875H840.32L828.555 74.2734V87H824.055V74.2734L812.289 52.875H817.445L826.305 70.0078ZM828.531 43.7344H833.781L827.5 50.625H824.008L828.531 43.7344ZM882.859 87H878.336L861.156 60.7031V87H856.633V52.875H861.156L878.383 79.2891V52.875H882.859V87ZM917.078 87H912.555V71.2266H895.352V87H890.852V52.875H895.352V67.5469H912.555V52.875H917.078V87ZM944.336 78.0938H930.039L926.828 87H922.188L935.219 52.875H939.156L952.211 87H947.594L944.336 78.0938ZM931.398 74.3906H943L937.188 58.4297L931.398 74.3906ZM944.383 50.1562V50.3906H940.797L937.281 46.4062L933.789 50.3906H930.203V50.1094L935.969 43.7344H938.594L944.383 50.1562ZM983.031 87H978.508L961.328 60.7031V87H956.805V52.875H961.328L978.555 79.2891V52.875H983.031V87ZM1012.98 71.7891C1009.12 70.6797 1006.31 69.3203 1004.55 67.7109C1002.8 66.0859 1001.92 64.0859 1001.92 61.7109C1001.92 59.0234 1002.99 56.8047 1005.13 55.0547C1007.29 53.2891 1010.09 52.4062 1013.52 52.4062C1015.87 52.4062 1017.95 52.8594 1019.78 53.7656C1021.62 54.6719 1023.05 55.9219 1024.05 57.5156C1025.06 59.1094 1025.57 60.8516 1025.57 62.7422H1021.05C1021.05 60.6797 1020.39 59.0625 1019.08 57.8906C1017.77 56.7031 1015.91 56.1094 1013.52 56.1094C1011.3 56.1094 1009.57 56.6016 1008.32 57.5859C1007.09 58.5547 1006.47 59.9062 1006.47 61.6406C1006.47 63.0312 1007.05 64.2109 1008.23 65.1797C1009.41 66.1328 1011.42 67.0078 1014.25 67.8047C1017.09 68.6016 1019.31 69.4844 1020.91 70.4531C1022.52 71.4062 1023.7 72.5234 1024.47 73.8047C1025.25 75.0859 1025.64 76.5938 1025.64 78.3281C1025.64 81.0938 1024.56 83.3125 1022.41 84.9844C1020.25 86.6406 1017.37 87.4688 1013.76 87.4688C1011.41 87.4688 1009.23 87.0234 1007.2 86.1328C1005.16 85.2266 1003.59 83.9922 1002.48 82.4297C1001.39 80.8672 1000.84 79.0938 1000.84 77.1094H1005.37C1005.37 79.1719 1006.12 80.8047 1007.64 82.0078C1009.17 83.1953 1011.21 83.7891 1013.76 83.7891C1016.13 83.7891 1017.95 83.3047 1019.22 82.3359C1020.48 81.3672 1021.12 80.0469 1021.12 78.375C1021.12 76.7031 1020.53 75.4141 1019.36 74.5078C1018.19 73.5859 1016.06 72.6797 1012.98 71.7891ZM1055.45 52.875V57.8672C1057.25 57.6953 1058.52 57.0781 1059.27 56.0156C1060.04 54.9375 1060.42 53.25 1060.42 50.9531H1064.15C1064.15 54.2344 1063.45 56.6953 1062.06 58.3359C1060.69 59.9609 1058.48 60.8672 1055.45 61.0547V76.1016C1055.44 79.2109 1054.48 81.7812 1052.57 83.8125C1050.66 85.8438 1048.06 87.0312 1044.77 87.375L1043.05 87.4688C1039.32 87.4688 1036.34 86.4609 1034.12 84.4453C1031.91 82.4297 1030.78 79.6562 1030.75 76.125V52.875H1035.2V75.9844C1035.2 78.4531 1035.88 80.375 1037.24 81.75C1038.6 83.1094 1040.54 83.7891 1043.05 83.7891C1045.6 83.7891 1047.55 83.1094 1048.89 81.75C1050.25 80.3906 1050.93 78.4766 1050.93 76.0078V52.875H1055.45ZM1040.99 92.9297C1040.99 92.2266 1041.2 91.6328 1041.62 91.1484C1042.06 90.6641 1042.7 90.4219 1043.55 90.4219C1044.39 90.4219 1045.03 90.6641 1045.47 91.1484C1045.91 91.6328 1046.12 92.2266 1046.12 92.9297C1046.12 93.6328 1045.91 94.2188 1045.47 94.6875C1045.03 95.1562 1044.39 95.3906 1043.55 95.3906C1042.7 95.3906 1042.06 95.1562 1041.62 94.6875C1041.2 94.2188 1040.99 93.6328 1040.99 92.9297Z" fill="white"/>
<path d="M30.2422 172.16H38.3281V174H27.9805V156.938H30.2422V172.16ZM39.9805 167.543C39.9805 166.301 40.2227 165.184 40.707 164.191C41.1992 163.199 41.8789 162.434 42.7461 161.895C43.6211 161.355 44.6172 161.086 45.7344 161.086C47.4609 161.086 48.8555 161.684 49.918 162.879C50.9883 164.074 51.5234 165.664 51.5234 167.648V167.801C51.5234 169.035 51.2852 170.145 50.8086 171.129C50.3398 172.105 49.6641 172.867 48.7812 173.414C47.9062 173.961 46.8984 174.234 45.7578 174.234C44.0391 174.234 42.6445 173.637 41.5742 172.441C40.5117 171.246 39.9805 169.664 39.9805 167.695V167.543ZM42.1602 167.801C42.1602 169.207 42.4844 170.336 43.1328 171.188C43.7891 172.039 44.6641 172.465 45.7578 172.465C46.8594 172.465 47.7344 172.035 48.3828 171.176C49.0312 170.309 49.3555 169.098 49.3555 167.543C49.3555 166.152 49.0234 165.027 48.3594 164.168C47.7031 163.301 46.8281 162.867 45.7344 162.867C44.6641 162.867 43.8008 163.293 43.1445 164.145C42.4883 164.996 42.1602 166.215 42.1602 167.801ZM53.7266 167.555C53.7266 165.578 54.1836 164.008 55.0977 162.844C56.0117 161.672 57.2227 161.086 58.7305 161.086C60.2773 161.086 61.4844 161.633 62.3516 162.727L62.457 161.32H64.4375V173.695C64.4375 175.336 63.9492 176.629 62.9727 177.574C62.0039 178.52 60.6992 178.992 59.0586 178.992C58.1445 178.992 57.25 178.797 56.375 178.406C55.5 178.016 54.832 177.48 54.3711 176.801L55.4961 175.5C56.4258 176.648 57.5625 177.223 58.9062 177.223C59.9609 177.223 60.7812 176.926 61.3672 176.332C61.9609 175.738 62.2578 174.902 62.2578 173.824V172.734C61.3906 173.734 60.207 174.234 58.707 174.234C57.2227 174.234 56.0195 173.637 55.0977 172.441C54.1836 171.246 53.7266 169.617 53.7266 167.555ZM55.9062 167.801C55.9062 169.23 56.1992 170.355 56.7852 171.176C57.3711 171.988 58.1914 172.395 59.2461 172.395C60.6133 172.395 61.6172 171.773 62.2578 170.531V164.742C61.5938 163.531 60.5977 162.926 59.2695 162.926C58.2148 162.926 57.3906 163.336 56.7969 164.156C56.2031 164.977 55.9062 166.191 55.9062 167.801ZM67.1445 167.543C67.1445 166.301 67.3867 165.184 67.8711 164.191C68.3633 163.199 69.043 162.434 69.9102 161.895C70.7852 161.355 71.7812 161.086 72.8984 161.086C74.625 161.086 76.0195 161.684 77.082 162.879C78.1523 164.074 78.6875 165.664 78.6875 167.648V167.801C78.6875 169.035 78.4492 170.145 77.9727 171.129C77.5039 172.105 76.8281 172.867 75.9453 173.414C75.0703 173.961 74.0625 174.234 72.9219 174.234C71.2031 174.234 69.8086 173.637 68.7383 172.441C67.6758 171.246 67.1445 169.664 67.1445 167.695V167.543ZM69.3242 167.801C69.3242 169.207 69.6484 170.336 70.2969 171.188C70.9531 172.039 71.8281 172.465 72.9219 172.465C74.0234 172.465 74.8984 172.035 75.5469 171.176C76.1953 170.309 76.5195 169.098 76.5195 167.543C76.5195 166.152 76.1875 165.027 75.5234 164.168C74.8672 163.301 73.9922 162.867 72.8984 162.867C71.8281 162.867 70.9648 163.293 70.3086 164.145C69.6523 164.996 69.3242 166.215 69.3242 167.801Z" fill="white"/>
<path d="M416.98 174V156.938H422.559C424.41 156.938 425.801 157.32 426.73 158.086C427.668 158.852 428.137 159.984 428.137 161.484C428.137 162.281 427.91 162.988 427.457 163.605C427.004 164.215 426.387 164.688 425.605 165.023C426.527 165.281 427.254 165.773 427.785 166.5C428.324 167.219 428.594 168.078 428.594 169.078C428.594 170.609 428.098 171.812 427.105 172.688C426.113 173.562 424.711 174 422.898 174H416.98ZM419.23 166.02V172.16H422.945C423.992 172.16 424.816 171.891 425.418 171.352C426.027 170.805 426.332 170.055 426.332 169.102C426.332 167.047 425.215 166.02 422.98 166.02H419.23ZM419.23 164.215H422.629C423.613 164.215 424.398 163.969 424.984 163.477C425.578 162.984 425.875 162.316 425.875 161.473C425.875 160.535 425.602 159.855 425.055 159.434C424.508 159.004 423.676 158.789 422.559 158.789H419.23V164.215ZM439.422 174C439.297 173.75 439.195 173.305 439.117 172.664C438.109 173.711 436.906 174.234 435.508 174.234C434.258 174.234 433.23 173.883 432.426 173.18C431.629 172.469 431.23 171.57 431.23 170.484C431.23 169.164 431.73 168.141 432.73 167.414C433.738 166.68 435.152 166.312 436.973 166.312H439.082V165.316C439.082 164.559 438.855 163.957 438.402 163.512C437.949 163.059 437.281 162.832 436.398 162.832C435.625 162.832 434.977 163.027 434.453 163.418C433.93 163.809 433.668 164.281 433.668 164.836H431.488C431.488 164.203 431.711 163.594 432.156 163.008C432.609 162.414 433.219 161.945 433.984 161.602C434.758 161.258 435.605 161.086 436.527 161.086C437.988 161.086 439.133 161.453 439.961 162.188C440.789 162.914 441.219 163.918 441.25 165.199V171.035C441.25 172.199 441.398 173.125 441.695 173.812V174H439.422ZM435.824 172.348C436.504 172.348 437.148 172.172 437.758 171.82C438.367 171.469 438.809 171.012 439.082 170.449V167.848H437.383C434.727 167.848 433.398 168.625 433.398 170.18C433.398 170.859 433.625 171.391 434.078 171.773C434.531 172.156 435.113 172.348 435.824 172.348ZM436.035 159.27L436.023 157.477C436.609 157.438 437.039 157.359 437.312 157.242C437.586 157.125 437.723 156.914 437.723 156.609C437.723 156.305 437.543 156.078 437.184 155.93C436.832 155.773 436.363 155.695 435.777 155.695L435.859 154.453C437.023 154.453 437.906 154.656 438.508 155.062C439.109 155.461 439.41 155.992 439.41 156.656C439.41 157.133 439.258 157.527 438.953 157.84C438.648 158.152 438.195 158.352 437.594 158.438L437.582 159.27H436.035ZM446.699 161.32L446.77 162.914C447.738 161.695 449.004 161.086 450.566 161.086C453.246 161.086 454.598 162.598 454.621 165.621V174H452.453V165.609C452.445 164.695 452.234 164.02 451.82 163.582C451.414 163.145 450.777 162.926 449.91 162.926C449.207 162.926 448.59 163.113 448.059 163.488C447.527 163.863 447.113 164.355 446.816 164.965V174H444.648V161.32H446.699ZM457.375 167.555C457.375 165.578 457.832 164.008 458.746 162.844C459.66 161.672 460.871 161.086 462.379 161.086C463.926 161.086 465.133 161.633 466 162.727L466.105 161.32H468.086V173.695C468.086 175.336 467.598 176.629 466.621 177.574C465.652 178.52 464.348 178.992 462.707 178.992C461.793 178.992 460.898 178.797 460.023 178.406C459.148 178.016 458.48 177.48 458.02 176.801L459.145 175.5C460.074 176.648 461.211 177.223 462.555 177.223C463.609 177.223 464.43 176.926 465.016 176.332C465.609 175.738 465.906 174.902 465.906 173.824V172.734C465.039 173.734 463.855 174.234 462.355 174.234C460.871 174.234 459.668 173.637 458.746 172.441C457.832 171.246 457.375 169.617 457.375 167.555ZM459.555 167.801C459.555 169.23 459.848 170.355 460.434 171.176C461.02 171.988 461.84 172.395 462.895 172.395C464.262 172.395 465.266 171.773 465.906 170.531V164.742C465.242 163.531 464.246 162.926 462.918 162.926C461.863 162.926 461.039 163.336 460.445 164.156C459.852 164.977 459.555 166.191 459.555 167.801ZM479.676 174H477.508V156H479.676V174ZM496.691 160.312C496.691 161.719 496.402 162.711 495.824 163.289C495.254 163.859 494.344 164.16 493.094 164.191V174H491.031L490.984 172.746C490.141 173.738 488.902 174.234 487.27 174.234C485.918 174.234 484.887 173.844 484.176 173.062C483.473 172.273 483.117 171.109 483.109 169.57V161.32H485.277V169.512C485.277 171.434 486.059 172.395 487.621 172.395C489.277 172.395 490.379 171.777 490.926 170.543V161.32H493.094V162.855C493.625 162.84 494.023 162.766 494.289 162.633C494.555 162.492 494.742 162.281 494.852 162C494.969 161.719 495.027 161.156 495.027 160.312H496.691ZM497.441 167.543C497.441 166.301 497.68 165.188 498.156 164.203C498.641 163.211 499.32 162.445 500.195 161.906C501.078 161.359 502.078 161.086 503.195 161.086C504.812 161.086 506.152 161.625 507.215 162.703C507.77 162.641 508.172 162.414 508.422 162.023C508.672 161.633 508.797 160.938 508.797 159.938H510.555C510.555 162.211 509.746 163.547 508.129 163.945C508.699 165.023 508.984 166.223 508.984 167.543V167.801C508.984 169.035 508.742 170.148 508.258 171.141C507.773 172.133 507.094 172.898 506.219 173.438C505.344 173.969 504.344 174.234 503.219 174.234C501.484 174.234 500.086 173.637 499.023 172.441C497.969 171.238 497.441 169.656 497.441 167.695V167.543ZM499.609 167.801C499.609 169.207 499.934 170.336 500.582 171.188C501.238 172.039 502.117 172.465 503.219 172.465C504.305 172.465 505.172 172.039 505.82 171.188C506.477 170.328 506.805 169.176 506.805 167.73V167.543C506.805 166.129 506.473 164.996 505.809 164.145C505.152 163.293 504.281 162.867 503.195 162.867C502.117 162.867 501.25 163.293 500.594 164.145C499.938 164.996 499.609 166.215 499.609 167.801ZM513.777 161.32L513.848 162.914C514.816 161.695 516.082 161.086 517.645 161.086C520.324 161.086 521.676 162.598 521.699 165.621V174H519.531V165.609C519.523 164.695 519.312 164.02 518.898 163.582C518.492 163.145 517.855 162.926 516.988 162.926C516.285 162.926 515.668 163.113 515.137 163.488C514.605 163.863 514.191 164.355 513.895 164.965V174H511.727V161.32H513.777ZM524.453 167.555C524.453 165.578 524.91 164.008 525.824 162.844C526.738 161.672 527.949 161.086 529.457 161.086C531.004 161.086 532.211 161.633 533.078 162.727L533.184 161.32H535.164V173.695C535.164 175.336 534.676 176.629 533.699 177.574C532.73 178.52 531.426 178.992 529.785 178.992C528.871 178.992 527.977 178.797 527.102 178.406C526.227 178.016 525.559 177.48 525.098 176.801L526.223 175.5C527.152 176.648 528.289 177.223 529.633 177.223C530.688 177.223 531.508 176.926 532.094 176.332C532.688 175.738 532.984 174.902 532.984 173.824V172.734C532.117 173.734 530.934 174.234 529.434 174.234C527.949 174.234 526.746 173.637 525.824 172.441C524.91 171.246 524.453 169.617 524.453 167.555ZM526.633 167.801C526.633 169.23 526.926 170.355 527.512 171.176C528.098 171.988 528.918 172.395 529.973 172.395C531.34 172.395 532.344 171.773 532.984 170.531V164.742C532.32 163.531 531.324 162.926 529.996 162.926C528.941 162.926 528.117 163.336 527.523 164.156C526.93 164.977 526.633 166.191 526.633 167.801Z" fill="white"/>
<rect x="861" y="145" width="436" height="46" fill="white"/>
<rect x="1297" y="145" width="117" height="46" fill="#C4C4C4"/>
<path d="M1318.77 163.789H1313.29V179H1311.05V163.789H1305.57V161.938H1318.77V163.789ZM1323.32 179H1321.14V166.32H1323.32V179ZM1323.53 164.457H1321.66L1318.64 161.012H1321.25L1323.53 164.457ZM1328.93 166.32L1328.99 167.727C1329.92 166.633 1331.17 166.086 1332.75 166.086C1334.52 166.086 1335.73 166.766 1336.37 168.125C1336.79 167.516 1337.34 167.023 1338.01 166.648C1338.69 166.273 1339.49 166.086 1340.41 166.086C1343.2 166.086 1344.61 167.559 1344.66 170.504V179H1342.49V170.633C1342.49 169.727 1342.28 169.051 1341.87 168.605C1341.45 168.152 1340.76 167.926 1339.78 167.926C1338.98 167.926 1338.31 168.168 1337.78 168.652C1337.25 169.129 1336.94 169.773 1336.85 170.586V179H1334.67V170.691C1334.67 168.848 1333.77 167.926 1331.96 167.926C1330.54 167.926 1329.57 168.531 1329.05 169.742V179H1326.88V166.32H1328.93ZM1357.43 173.129L1356.07 174.547V179H1353.9V161H1356.07V171.887L1357.23 170.492L1361.18 166.32H1363.82L1358.88 171.617L1364.39 179H1361.85L1357.43 173.129ZM1368.41 179H1366.24V166.32H1368.41V179ZM1366.07 162.957C1366.07 162.605 1366.17 162.309 1366.38 162.066C1366.6 161.824 1366.92 161.703 1367.34 161.703C1367.77 161.703 1368.09 161.824 1368.3 162.066C1368.52 162.309 1368.63 162.605 1368.63 162.957C1368.63 163.309 1368.52 163.602 1368.3 163.836C1368.09 164.07 1367.77 164.188 1367.34 164.188C1366.92 164.188 1366.6 164.07 1366.38 163.836C1366.17 163.602 1366.07 163.309 1366.07 162.957ZM1377.15 179.234C1375.43 179.234 1374.04 178.672 1372.96 177.547C1371.88 176.414 1371.34 174.902 1371.34 173.012V172.613C1371.34 171.355 1371.58 170.234 1372.05 169.25C1372.54 168.258 1373.21 167.484 1374.07 166.93C1374.94 166.367 1375.88 166.086 1376.88 166.086C1378.53 166.086 1379.81 166.629 1380.73 167.715C1381.64 168.801 1382.1 170.355 1382.1 172.379V173.281H1373.51C1373.54 174.531 1373.9 175.543 1374.6 176.316C1375.3 177.082 1376.19 177.465 1377.27 177.465C1378.04 177.465 1378.68 177.309 1379.21 176.996C1379.75 176.684 1380.21 176.27 1380.61 175.754L1381.93 176.785C1380.87 178.418 1379.28 179.234 1377.15 179.234ZM1376.88 167.867C1376.01 167.867 1375.27 168.188 1374.68 168.828C1374.09 169.461 1373.72 170.352 1373.58 171.5H1379.93V171.336C1379.87 170.234 1379.57 169.383 1379.04 168.781C1378.51 168.172 1377.79 167.867 1376.88 167.867ZM1375.99 161.363H1377.77L1381.17 164.445H1378.86L1376.88 162.582L1374.89 164.445H1372.57L1375.99 161.363ZM1381.97 159.336H1384.31L1381.96 162.371H1380.3L1381.97 159.336ZM1386.66 166.32L1386.71 167.727C1387.64 166.633 1388.9 166.086 1390.48 166.086C1392.25 166.086 1393.46 166.766 1394.1 168.125C1394.52 167.516 1395.07 167.023 1395.74 166.648C1396.42 166.273 1397.22 166.086 1398.14 166.086C1400.92 166.086 1402.34 167.559 1402.38 170.504V179H1400.21V170.633C1400.21 169.727 1400.01 169.051 1399.59 168.605C1399.18 168.152 1398.48 167.926 1397.51 167.926C1396.7 167.926 1396.04 168.168 1395.5 168.652C1394.97 169.129 1394.66 169.773 1394.58 170.586V179H1392.4V170.691C1392.4 168.848 1391.5 167.926 1389.69 167.926C1388.27 167.926 1387.3 168.531 1386.77 169.742V179H1384.61V166.32H1386.66Z" fill="white"/>
<g filter="url(#filter0_d)">
<rect x="244" y="133" width="145" height="63" rx="10" fill="#F1A708"/>
</g>
<path d="M137.094 174H134.832L126.242 160.852V174H123.98V156.938H126.242L134.855 170.145V156.938H137.094V174ZM142.918 162.855C143.879 161.676 145.129 161.086 146.668 161.086C149.348 161.086 150.699 162.598 150.723 165.621V174H148.555V165.609C148.547 164.695 148.336 164.02 147.922 163.582C147.516 163.145 146.879 162.926 146.012 162.926C145.309 162.926 144.691 163.113 144.16 163.488C143.629 163.863 143.215 164.355 142.918 164.965V174H140.75V156H142.918V162.855ZM161.797 174C161.672 173.75 161.57 173.305 161.492 172.664C160.484 173.711 159.281 174.234 157.883 174.234C156.633 174.234 155.605 173.883 154.801 173.18C154.004 172.469 153.605 171.57 153.605 170.484C153.605 169.164 154.105 168.141 155.105 167.414C156.113 166.68 157.527 166.312 159.348 166.312H161.457V165.316C161.457 164.559 161.23 163.957 160.777 163.512C160.324 163.059 159.656 162.832 158.773 162.832C158 162.832 157.352 163.027 156.828 163.418C156.305 163.809 156.043 164.281 156.043 164.836H153.863C153.863 164.203 154.086 163.594 154.531 163.008C154.984 162.414 155.594 161.945 156.359 161.602C157.133 161.258 157.98 161.086 158.902 161.086C160.363 161.086 161.508 161.453 162.336 162.188C163.164 162.914 163.594 163.918 163.625 165.199V171.035C163.625 172.199 163.773 173.125 164.07 173.812V174H161.797ZM158.199 172.348C158.879 172.348 159.523 172.172 160.133 171.82C160.742 171.469 161.184 171.012 161.457 170.449V167.848H159.758C157.102 167.848 155.773 168.625 155.773 170.18C155.773 170.859 156 171.391 156.453 171.773C156.906 172.156 157.488 172.348 158.199 172.348ZM162.688 159.211V159.328H160.895L159.137 157.336L157.391 159.328H155.598V159.188L158.48 156H159.793L162.688 159.211ZM169.074 161.32L169.145 162.914C170.113 161.695 171.379 161.086 172.941 161.086C175.621 161.086 176.973 162.598 176.996 165.621V174H174.828V165.609C174.82 164.695 174.609 164.02 174.195 163.582C173.789 163.145 173.152 162.926 172.285 162.926C171.582 162.926 170.965 163.113 170.434 163.488C169.902 163.863 169.488 164.355 169.191 164.965V174H167.023V161.32H169.074ZM190.402 171.059L193.543 161.32H195.758L191.211 174H189.559L184.965 161.32H187.18L190.402 171.059ZM200.199 174H198.031V161.32H200.199V174ZM197.855 157.957C197.855 157.605 197.961 157.309 198.172 157.066C198.391 156.824 198.711 156.703 199.133 156.703C199.555 156.703 199.875 156.824 200.094 157.066C200.312 157.309 200.422 157.605 200.422 157.957C200.422 158.309 200.312 158.602 200.094 158.836C199.875 159.07 199.555 159.188 199.133 159.188C198.711 159.188 198.391 159.07 198.172 158.836C197.961 158.602 197.855 158.309 197.855 157.957ZM208.941 174.234C207.223 174.234 205.824 173.672 204.746 172.547C203.668 171.414 203.129 169.902 203.129 168.012V167.613C203.129 166.355 203.367 165.234 203.844 164.25C204.328 163.258 205 162.484 205.859 161.93C206.727 161.367 207.664 161.086 208.672 161.086C210.32 161.086 211.602 161.629 212.516 162.715C213.43 163.801 213.887 165.355 213.887 167.379V168.281H205.297C205.328 169.531 205.691 170.543 206.387 171.316C207.09 172.082 207.98 172.465 209.059 172.465C209.824 172.465 210.473 172.309 211.004 171.996C211.535 171.684 212 171.27 212.398 170.754L213.723 171.785C212.66 173.418 211.066 174.234 208.941 174.234ZM208.672 162.867C207.797 162.867 207.062 163.188 206.469 163.828C205.875 164.461 205.508 165.352 205.367 166.5H211.719V166.336C211.656 165.234 211.359 164.383 210.828 163.781C210.297 163.172 209.578 162.867 208.672 162.867ZM212.211 159.211V159.328H210.418L208.66 157.336L206.914 159.328H205.121V159.188L208.004 156H209.316L212.211 159.211ZM218.457 161.32L218.527 162.914C219.496 161.695 220.762 161.086 222.324 161.086C225.004 161.086 226.355 162.598 226.379 165.621V174H224.211V165.609C224.203 164.695 223.992 164.02 223.578 163.582C223.172 163.145 222.535 162.926 221.668 162.926C220.965 162.926 220.348 163.113 219.816 163.488C219.285 163.863 218.871 164.355 218.574 164.965V174H216.406V161.32H218.457Z" fill="white"/>
<rect x="116.5" y="232.5" width="380" height="103" fill="white" stroke="black"/>
<path d="M245.484 286.32V293H243.234V275.938H249.527C251.395 275.938 252.855 276.414 253.91 277.367C254.973 278.32 255.504 279.582 255.504 281.152C255.504 282.809 254.984 284.086 253.945 284.984C252.914 285.875 251.434 286.32 249.504 286.32H245.484ZM245.484 284.48H249.527C250.73 284.48 251.652 284.199 252.293 283.637C252.934 283.066 253.254 282.246 253.254 281.176C253.254 280.16 252.934 279.348 252.293 278.738C251.652 278.129 250.773 277.812 249.656 277.789H245.484V284.48ZM260.203 281.855C261.164 280.676 262.414 280.086 263.953 280.086C266.633 280.086 267.984 281.598 268.008 284.621V293H265.84V284.609C265.832 283.695 265.621 283.02 265.207 282.582C264.801 282.145 264.164 281.926 263.297 281.926C262.594 281.926 261.977 282.113 261.445 282.488C260.914 282.863 260.5 283.355 260.203 283.965V293H258.035V275H260.203V281.855ZM270.68 286.543C270.68 285.301 270.922 284.184 271.406 283.191C271.898 282.199 272.578 281.434 273.445 280.895C274.32 280.355 275.316 280.086 276.434 280.086C278.16 280.086 279.555 280.684 280.617 281.879C281.688 283.074 282.223 284.664 282.223 286.648V286.801C282.223 288.035 281.984 289.145 281.508 290.129C281.039 291.105 280.363 291.867 279.48 292.414C278.605 292.961 277.598 293.234 276.457 293.234C274.738 293.234 273.344 292.637 272.273 291.441C271.211 290.246 270.68 288.664 270.68 286.695V286.543ZM272.859 286.801C272.859 288.207 273.184 289.336 273.832 290.188C274.488 291.039 275.363 291.465 276.457 291.465C277.559 291.465 278.434 291.035 279.082 290.176C279.73 289.309 280.055 288.098 280.055 286.543C280.055 285.152 279.723 284.027 279.059 283.168C278.402 282.301 277.527 281.867 276.434 281.867C275.363 281.867 274.5 282.293 273.844 283.145C273.188 283.996 272.859 285.215 272.859 286.801ZM277.594 278.445H275.73L272.707 275H275.32L277.594 278.445ZM286.992 280.32L287.062 281.914C288.031 280.695 289.297 280.086 290.859 280.086C293.539 280.086 294.891 281.598 294.914 284.621V293H292.746V284.609C292.738 283.695 292.527 283.02 292.113 282.582C291.707 282.145 291.07 281.926 290.203 281.926C289.5 281.926 288.883 282.113 288.352 282.488C287.82 282.863 287.406 283.355 287.109 283.965V293H284.941V280.32H286.992ZM297.668 286.555C297.668 284.578 298.125 283.008 299.039 281.844C299.953 280.672 301.164 280.086 302.672 280.086C304.219 280.086 305.426 280.633 306.293 281.727L306.398 280.32H308.379V292.695C308.379 294.336 307.891 295.629 306.914 296.574C305.945 297.52 304.641 297.992 303 297.992C302.086 297.992 301.191 297.797 300.316 297.406C299.441 297.016 298.773 296.48 298.312 295.801L299.438 294.5C300.367 295.648 301.504 296.223 302.848 296.223C303.902 296.223 304.723 295.926 305.309 295.332C305.902 294.738 306.199 293.902 306.199 292.824V291.734C305.332 292.734 304.148 293.234 302.648 293.234C301.164 293.234 299.961 292.637 299.039 291.441C298.125 290.246 297.668 288.617 297.668 286.555ZM299.848 286.801C299.848 288.23 300.141 289.355 300.727 290.176C301.312 290.988 302.133 291.395 303.188 291.395C304.555 291.395 305.559 290.773 306.199 289.531V283.742C305.535 282.531 304.539 281.926 303.211 281.926C302.156 281.926 301.332 282.336 300.738 283.156C300.145 283.977 299.848 285.191 299.848 286.801ZM328.348 286.801C328.348 288.738 327.902 290.297 327.012 291.477C326.121 292.648 324.926 293.234 323.426 293.234C321.824 293.234 320.586 292.668 319.711 291.535L319.605 293H317.613V275H319.781V281.715C320.656 280.629 321.863 280.086 323.402 280.086C324.941 280.086 326.148 280.668 327.023 281.832C327.906 282.996 328.348 284.59 328.348 286.613V286.801ZM326.18 286.555C326.18 285.078 325.895 283.938 325.324 283.133C324.754 282.328 323.934 281.926 322.863 281.926C321.434 281.926 320.406 282.59 319.781 283.918V289.402C320.445 290.73 321.48 291.395 322.887 291.395C323.926 291.395 324.734 290.992 325.312 290.188C325.891 289.383 326.18 288.172 326.18 286.555ZM338.918 293C338.793 292.75 338.691 292.305 338.613 291.664C337.605 292.711 336.402 293.234 335.004 293.234C333.754 293.234 332.727 292.883 331.922 292.18C331.125 291.469 330.727 290.57 330.727 289.484C330.727 288.164 331.227 287.141 332.227 286.414C333.234 285.68 334.648 285.312 336.469 285.312H338.578V284.316C338.578 283.559 338.352 282.957 337.898 282.512C337.445 282.059 336.777 281.832 335.895 281.832C335.121 281.832 334.473 282.027 333.949 282.418C333.426 282.809 333.164 283.281 333.164 283.836H330.984C330.984 283.203 331.207 282.594 331.652 282.008C332.105 281.414 332.715 280.945 333.48 280.602C334.254 280.258 335.102 280.086 336.023 280.086C337.484 280.086 338.629 280.453 339.457 281.188C340.285 281.914 340.715 282.918 340.746 284.199V290.035C340.746 291.199 340.895 292.125 341.191 292.812V293H338.918ZM335.32 291.348C336 291.348 336.645 291.172 337.254 290.82C337.863 290.469 338.305 290.012 338.578 289.449V286.848H336.879C334.223 286.848 332.895 287.625 332.895 289.18C332.895 289.859 333.121 290.391 333.574 290.773C334.027 291.156 334.609 291.348 335.32 291.348ZM346.195 280.32L346.266 281.914C347.234 280.695 348.5 280.086 350.062 280.086C352.742 280.086 354.094 281.598 354.117 284.621V293H351.949V284.609C351.941 283.695 351.73 283.02 351.316 282.582C350.91 282.145 350.273 281.926 349.406 281.926C348.703 281.926 348.086 282.113 347.555 282.488C347.023 282.863 346.609 283.355 346.312 283.965V293H344.145V280.32H346.195Z" fill="black"/>
<rect x="529.5" y="232.5" width="380" height="103" fill="white" stroke="black"/>
<path d="M658.484 286.32V293H656.234V275.938H662.527C664.395 275.938 665.855 276.414 666.91 277.367C667.973 278.32 668.504 279.582 668.504 281.152C668.504 282.809 667.984 284.086 666.945 284.984C665.914 285.875 664.434 286.32 662.504 286.32H658.484ZM658.484 284.48H662.527C663.73 284.48 664.652 284.199 665.293 283.637C665.934 283.066 666.254 282.246 666.254 281.176C666.254 280.16 665.934 279.348 665.293 278.738C664.652 278.129 663.773 277.812 662.656 277.789H658.484V284.48ZM673.203 281.855C674.164 280.676 675.414 280.086 676.953 280.086C679.633 280.086 680.984 281.598 681.008 284.621V293H678.84V284.609C678.832 283.695 678.621 283.02 678.207 282.582C677.801 282.145 677.164 281.926 676.297 281.926C675.594 281.926 674.977 282.113 674.445 282.488C673.914 282.863 673.5 283.355 673.203 283.965V293H671.035V275H673.203V281.855ZM683.68 286.543C683.68 285.301 683.922 284.184 684.406 283.191C684.898 282.199 685.578 281.434 686.445 280.895C687.32 280.355 688.316 280.086 689.434 280.086C691.16 280.086 692.555 280.684 693.617 281.879C694.688 283.074 695.223 284.664 695.223 286.648V286.801C695.223 288.035 694.984 289.145 694.508 290.129C694.039 291.105 693.363 291.867 692.48 292.414C691.605 292.961 690.598 293.234 689.457 293.234C687.738 293.234 686.344 292.637 685.273 291.441C684.211 290.246 683.68 288.664 683.68 286.695V286.543ZM685.859 286.801C685.859 288.207 686.184 289.336 686.832 290.188C687.488 291.039 688.363 291.465 689.457 291.465C690.559 291.465 691.434 291.035 692.082 290.176C692.73 289.309 693.055 288.098 693.055 286.543C693.055 285.152 692.723 284.027 692.059 283.168C691.402 282.301 690.527 281.867 689.434 281.867C688.363 281.867 687.5 282.293 686.844 283.145C686.188 283.996 685.859 285.215 685.859 286.801ZM690.594 278.445H688.73L685.707 275H688.32L690.594 278.445ZM699.992 280.32L700.062 281.914C701.031 280.695 702.297 280.086 703.859 280.086C706.539 280.086 707.891 281.598 707.914 284.621V293H705.746V284.609C705.738 283.695 705.527 283.02 705.113 282.582C704.707 282.145 704.07 281.926 703.203 281.926C702.5 281.926 701.883 282.113 701.352 282.488C700.82 282.863 700.406 283.355 700.109 283.965V293H697.941V280.32H699.992ZM710.668 286.555C710.668 284.578 711.125 283.008 712.039 281.844C712.953 280.672 714.164 280.086 715.672 280.086C717.219 280.086 718.426 280.633 719.293 281.727L719.398 280.32H721.379V292.695C721.379 294.336 720.891 295.629 719.914 296.574C718.945 297.52 717.641 297.992 716 297.992C715.086 297.992 714.191 297.797 713.316 297.406C712.441 297.016 711.773 296.48 711.312 295.801L712.438 294.5C713.367 295.648 714.504 296.223 715.848 296.223C716.902 296.223 717.723 295.926 718.309 295.332C718.902 294.738 719.199 293.902 719.199 292.824V291.734C718.332 292.734 717.148 293.234 715.648 293.234C714.164 293.234 712.961 292.637 712.039 291.441C711.125 290.246 710.668 288.617 710.668 286.555ZM712.848 286.801C712.848 288.23 713.141 289.355 713.727 290.176C714.312 290.988 715.133 291.395 716.188 291.395C717.555 291.395 718.559 290.773 719.199 289.531V283.742C718.535 282.531 717.539 281.926 716.211 281.926C715.156 281.926 714.332 282.336 713.738 283.156C713.145 283.977 712.848 285.191 712.848 286.801ZM741.348 286.801C741.348 288.738 740.902 290.297 740.012 291.477C739.121 292.648 737.926 293.234 736.426 293.234C734.824 293.234 733.586 292.668 732.711 291.535L732.605 293H730.613V275H732.781V281.715C733.656 280.629 734.863 280.086 736.402 280.086C737.941 280.086 739.148 280.668 740.023 281.832C740.906 282.996 741.348 284.59 741.348 286.613V286.801ZM739.18 286.555C739.18 285.078 738.895 283.938 738.324 283.133C737.754 282.328 736.934 281.926 735.863 281.926C734.434 281.926 733.406 282.59 732.781 283.918V289.402C733.445 290.73 734.48 291.395 735.887 291.395C736.926 291.395 737.734 290.992 738.312 290.188C738.891 289.383 739.18 288.172 739.18 286.555ZM751.918 293C751.793 292.75 751.691 292.305 751.613 291.664C750.605 292.711 749.402 293.234 748.004 293.234C746.754 293.234 745.727 292.883 744.922 292.18C744.125 291.469 743.727 290.57 743.727 289.484C743.727 288.164 744.227 287.141 745.227 286.414C746.234 285.68 747.648 285.312 749.469 285.312H751.578V284.316C751.578 283.559 751.352 282.957 750.898 282.512C750.445 282.059 749.777 281.832 748.895 281.832C748.121 281.832 747.473 282.027 746.949 282.418C746.426 282.809 746.164 283.281 746.164 283.836H743.984C743.984 283.203 744.207 282.594 744.652 282.008C745.105 281.414 745.715 280.945 746.48 280.602C747.254 280.258 748.102 280.086 749.023 280.086C750.484 280.086 751.629 280.453 752.457 281.188C753.285 281.914 753.715 282.918 753.746 284.199V290.035C753.746 291.199 753.895 292.125 754.191 292.812V293H751.918ZM748.32 291.348C749 291.348 749.645 291.172 750.254 290.82C750.863 290.469 751.305 290.012 751.578 289.449V286.848H749.879C747.223 286.848 745.895 287.625 745.895 289.18C745.895 289.859 746.121 290.391 746.574 290.773C747.027 291.156 747.609 291.348 748.32 291.348ZM759.195 280.32L759.266 281.914C760.234 280.695 761.5 280.086 763.062 280.086C765.742 280.086 767.094 281.598 767.117 284.621V293H764.949V284.609C764.941 283.695 764.73 283.02 764.316 282.582C763.91 282.145 763.273 281.926 762.406 281.926C761.703 281.926 761.086 282.113 760.555 282.488C760.023 282.863 759.609 283.355 759.312 283.965V293H757.145V280.32H759.195Z" fill="black"/>
<rect x="942.5" y="232.5" width="380" height="103" fill="white" stroke="black"/>
<path d="M1071.48 286.32V293H1069.23V275.938H1075.53C1077.39 275.938 1078.86 276.414 1079.91 277.367C1080.97 278.32 1081.5 279.582 1081.5 281.152C1081.5 282.809 1080.98 284.086 1079.95 284.984C1078.91 285.875 1077.43 286.32 1075.5 286.32H1071.48ZM1071.48 284.48H1075.53C1076.73 284.48 1077.65 284.199 1078.29 283.637C1078.93 283.066 1079.25 282.246 1079.25 281.176C1079.25 280.16 1078.93 279.348 1078.29 278.738C1077.65 278.129 1076.77 277.812 1075.66 277.789H1071.48V284.48ZM1086.2 281.855C1087.16 280.676 1088.41 280.086 1089.95 280.086C1092.63 280.086 1093.98 281.598 1094.01 284.621V293H1091.84V284.609C1091.83 283.695 1091.62 283.02 1091.21 282.582C1090.8 282.145 1090.16 281.926 1089.3 281.926C1088.59 281.926 1087.98 282.113 1087.45 282.488C1086.91 282.863 1086.5 283.355 1086.2 283.965V293H1084.04V275H1086.2V281.855ZM1096.68 286.543C1096.68 285.301 1096.92 284.184 1097.41 283.191C1097.9 282.199 1098.58 281.434 1099.45 280.895C1100.32 280.355 1101.32 280.086 1102.43 280.086C1104.16 280.086 1105.55 280.684 1106.62 281.879C1107.69 283.074 1108.22 284.664 1108.22 286.648V286.801C1108.22 288.035 1107.98 289.145 1107.51 290.129C1107.04 291.105 1106.36 291.867 1105.48 292.414C1104.61 292.961 1103.6 293.234 1102.46 293.234C1100.74 293.234 1099.34 292.637 1098.27 291.441C1097.21 290.246 1096.68 288.664 1096.68 286.695V286.543ZM1098.86 286.801C1098.86 288.207 1099.18 289.336 1099.83 290.188C1100.49 291.039 1101.36 291.465 1102.46 291.465C1103.56 291.465 1104.43 291.035 1105.08 290.176C1105.73 289.309 1106.05 288.098 1106.05 286.543C1106.05 285.152 1105.72 284.027 1105.06 283.168C1104.4 282.301 1103.53 281.867 1102.43 281.867C1101.36 281.867 1100.5 282.293 1099.84 283.145C1099.19 283.996 1098.86 285.215 1098.86 286.801ZM1103.59 278.445H1101.73L1098.71 275H1101.32L1103.59 278.445ZM1112.99 280.32L1113.06 281.914C1114.03 280.695 1115.3 280.086 1116.86 280.086C1119.54 280.086 1120.89 281.598 1120.91 284.621V293H1118.75V284.609C1118.74 283.695 1118.53 283.02 1118.11 282.582C1117.71 282.145 1117.07 281.926 1116.2 281.926C1115.5 281.926 1114.88 282.113 1114.35 282.488C1113.82 282.863 1113.41 283.355 1113.11 283.965V293H1110.94V280.32H1112.99ZM1123.67 286.555C1123.67 284.578 1124.12 283.008 1125.04 281.844C1125.95 280.672 1127.16 280.086 1128.67 280.086C1130.22 280.086 1131.43 280.633 1132.29 281.727L1132.4 280.32H1134.38V292.695C1134.38 294.336 1133.89 295.629 1132.91 296.574C1131.95 297.52 1130.64 297.992 1129 297.992C1128.09 297.992 1127.19 297.797 1126.32 297.406C1125.44 297.016 1124.77 296.48 1124.31 295.801L1125.44 294.5C1126.37 295.648 1127.5 296.223 1128.85 296.223C1129.9 296.223 1130.72 295.926 1131.31 295.332C1131.9 294.738 1132.2 293.902 1132.2 292.824V291.734C1131.33 292.734 1130.15 293.234 1128.65 293.234C1127.16 293.234 1125.96 292.637 1125.04 291.441C1124.12 290.246 1123.67 288.617 1123.67 286.555ZM1125.85 286.801C1125.85 288.23 1126.14 289.355 1126.73 290.176C1127.31 290.988 1128.13 291.395 1129.19 291.395C1130.55 291.395 1131.56 290.773 1132.2 289.531V283.742C1131.54 282.531 1130.54 281.926 1129.21 281.926C1128.16 281.926 1127.33 282.336 1126.74 283.156C1126.14 283.977 1125.85 285.191 1125.85 286.801ZM1154.35 286.801C1154.35 288.738 1153.9 290.297 1153.01 291.477C1152.12 292.648 1150.93 293.234 1149.43 293.234C1147.82 293.234 1146.59 292.668 1145.71 291.535L1145.61 293H1143.61V275H1145.78V281.715C1146.66 280.629 1147.86 280.086 1149.4 280.086C1150.94 280.086 1152.15 280.668 1153.02 281.832C1153.91 282.996 1154.35 284.59 1154.35 286.613V286.801ZM1152.18 286.555C1152.18 285.078 1151.89 283.938 1151.32 283.133C1150.75 282.328 1149.93 281.926 1148.86 281.926C1147.43 281.926 1146.41 282.59 1145.78 283.918V289.402C1146.45 290.73 1147.48 291.395 1148.89 291.395C1149.93 291.395 1150.73 290.992 1151.31 290.188C1151.89 289.383 1152.18 288.172 1152.18 286.555ZM1164.92 293C1164.79 292.75 1164.69 292.305 1164.61 291.664C1163.61 292.711 1162.4 293.234 1161 293.234C1159.75 293.234 1158.73 292.883 1157.92 292.18C1157.12 291.469 1156.73 290.57 1156.73 289.484C1156.73 288.164 1157.23 287.141 1158.23 286.414C1159.23 285.68 1160.65 285.312 1162.47 285.312H1164.58V284.316C1164.58 283.559 1164.35 282.957 1163.9 282.512C1163.45 282.059 1162.78 281.832 1161.89 281.832C1161.12 281.832 1160.47 282.027 1159.95 282.418C1159.43 282.809 1159.16 283.281 1159.16 283.836H1156.98C1156.98 283.203 1157.21 282.594 1157.65 282.008C1158.11 281.414 1158.71 280.945 1159.48 280.602C1160.25 280.258 1161.1 280.086 1162.02 280.086C1163.48 280.086 1164.63 280.453 1165.46 281.188C1166.29 281.914 1166.71 282.918 1166.75 284.199V290.035C1166.75 291.199 1166.89 292.125 1167.19 292.812V293H1164.92ZM1161.32 291.348C1162 291.348 1162.64 291.172 1163.25 290.82C1163.86 290.469 1164.3 290.012 1164.58 289.449V286.848H1162.88C1160.22 286.848 1158.89 287.625 1158.89 289.18C1158.89 289.859 1159.12 290.391 1159.57 290.773C1160.03 291.156 1160.61 291.348 1161.32 291.348ZM1172.2 280.32L1172.27 281.914C1173.23 280.695 1174.5 280.086 1176.06 280.086C1178.74 280.086 1180.09 281.598 1180.12 284.621V293H1177.95V284.609C1177.94 283.695 1177.73 283.02 1177.32 282.582C1176.91 282.145 1176.27 281.926 1175.41 281.926C1174.7 281.926 1174.09 282.113 1173.55 282.488C1173.02 282.863 1172.61 283.355 1172.31 283.965V293H1170.14V280.32H1172.2Z" fill="black"/>
<rect x="116.5" y="367.5" width="380" height="103" fill="white" stroke="black"/>
<path d="M245.484 421.32V428H243.234V410.938H249.527C251.395 410.938 252.855 411.414 253.91 412.367C254.973 413.32 255.504 414.582 255.504 416.152C255.504 417.809 254.984 419.086 253.945 419.984C252.914 420.875 251.434 421.32 249.504 421.32H245.484ZM245.484 419.48H249.527C250.73 419.48 251.652 419.199 252.293 418.637C252.934 418.066 253.254 417.246 253.254 416.176C253.254 415.16 252.934 414.348 252.293 413.738C251.652 413.129 250.773 412.812 249.656 412.789H245.484V419.48ZM260.203 416.855C261.164 415.676 262.414 415.086 263.953 415.086C266.633 415.086 267.984 416.598 268.008 419.621V428H265.84V419.609C265.832 418.695 265.621 418.02 265.207 417.582C264.801 417.145 264.164 416.926 263.297 416.926C262.594 416.926 261.977 417.113 261.445 417.488C260.914 417.863 260.5 418.355 260.203 418.965V428H258.035V410H260.203V416.855ZM270.68 421.543C270.68 420.301 270.922 419.184 271.406 418.191C271.898 417.199 272.578 416.434 273.445 415.895C274.32 415.355 275.316 415.086 276.434 415.086C278.16 415.086 279.555 415.684 280.617 416.879C281.688 418.074 282.223 419.664 282.223 421.648V421.801C282.223 423.035 281.984 424.145 281.508 425.129C281.039 426.105 280.363 426.867 279.48 427.414C278.605 427.961 277.598 428.234 276.457 428.234C274.738 428.234 273.344 427.637 272.273 426.441C271.211 425.246 270.68 423.664 270.68 421.695V421.543ZM272.859 421.801C272.859 423.207 273.184 424.336 273.832 425.188C274.488 426.039 275.363 426.465 276.457 426.465C277.559 426.465 278.434 426.035 279.082 425.176C279.73 424.309 280.055 423.098 280.055 421.543C280.055 420.152 279.723 419.027 279.059 418.168C278.402 417.301 277.527 416.867 276.434 416.867C275.363 416.867 274.5 417.293 273.844 418.145C273.188 418.996 272.859 420.215 272.859 421.801ZM277.594 413.445H275.73L272.707 410H275.32L277.594 413.445ZM286.992 415.32L287.062 416.914C288.031 415.695 289.297 415.086 290.859 415.086C293.539 415.086 294.891 416.598 294.914 419.621V428H292.746V419.609C292.738 418.695 292.527 418.02 292.113 417.582C291.707 417.145 291.07 416.926 290.203 416.926C289.5 416.926 288.883 417.113 288.352 417.488C287.82 417.863 287.406 418.355 287.109 418.965V428H284.941V415.32H286.992ZM297.668 421.555C297.668 419.578 298.125 418.008 299.039 416.844C299.953 415.672 301.164 415.086 302.672 415.086C304.219 415.086 305.426 415.633 306.293 416.727L306.398 415.32H308.379V427.695C308.379 429.336 307.891 430.629 306.914 431.574C305.945 432.52 304.641 432.992 303 432.992C302.086 432.992 301.191 432.797 300.316 432.406C299.441 432.016 298.773 431.48 298.312 430.801L299.438 429.5C300.367 430.648 301.504 431.223 302.848 431.223C303.902 431.223 304.723 430.926 305.309 430.332C305.902 429.738 306.199 428.902 306.199 427.824V426.734C305.332 427.734 304.148 428.234 302.648 428.234C301.164 428.234 299.961 427.637 299.039 426.441C298.125 425.246 297.668 423.617 297.668 421.555ZM299.848 421.801C299.848 423.23 300.141 424.355 300.727 425.176C301.312 425.988 302.133 426.395 303.188 426.395C304.555 426.395 305.559 425.773 306.199 424.531V418.742C305.535 417.531 304.539 416.926 303.211 416.926C302.156 416.926 301.332 417.336 300.738 418.156C300.145 418.977 299.848 420.191 299.848 421.801ZM328.348 421.801C328.348 423.738 327.902 425.297 327.012 426.477C326.121 427.648 324.926 428.234 323.426 428.234C321.824 428.234 320.586 427.668 319.711 426.535L319.605 428H317.613V410H319.781V416.715C320.656 415.629 321.863 415.086 323.402 415.086C324.941 415.086 326.148 415.668 327.023 416.832C327.906 417.996 328.348 419.59 328.348 421.613V421.801ZM326.18 421.555C326.18 420.078 325.895 418.938 325.324 418.133C324.754 417.328 323.934 416.926 322.863 416.926C321.434 416.926 320.406 417.59 319.781 418.918V424.402C320.445 425.73 321.48 426.395 322.887 426.395C323.926 426.395 324.734 425.992 325.312 425.188C325.891 424.383 326.18 423.172 326.18 421.555ZM338.918 428C338.793 427.75 338.691 427.305 338.613 426.664C337.605 427.711 336.402 428.234 335.004 428.234C333.754 428.234 332.727 427.883 331.922 427.18C331.125 426.469 330.727 425.57 330.727 424.484C330.727 423.164 331.227 422.141 332.227 421.414C333.234 420.68 334.648 420.312 336.469 420.312H338.578V419.316C338.578 418.559 338.352 417.957 337.898 417.512C337.445 417.059 336.777 416.832 335.895 416.832C335.121 416.832 334.473 417.027 333.949 417.418C333.426 417.809 333.164 418.281 333.164 418.836H330.984C330.984 418.203 331.207 417.594 331.652 417.008C332.105 416.414 332.715 415.945 333.48 415.602C334.254 415.258 335.102 415.086 336.023 415.086C337.484 415.086 338.629 415.453 339.457 416.188C340.285 416.914 340.715 417.918 340.746 419.199V425.035C340.746 426.199 340.895 427.125 341.191 427.812V428H338.918ZM335.32 426.348C336 426.348 336.645 426.172 337.254 425.82C337.863 425.469 338.305 425.012 338.578 424.449V421.848H336.879C334.223 421.848 332.895 422.625 332.895 424.18C332.895 424.859 333.121 425.391 333.574 425.773C334.027 426.156 334.609 426.348 335.32 426.348ZM346.195 415.32L346.266 416.914C347.234 415.695 348.5 415.086 350.062 415.086C352.742 415.086 354.094 416.598 354.117 419.621V428H351.949V419.609C351.941 418.695 351.73 418.02 351.316 417.582C350.91 417.145 350.273 416.926 349.406 416.926C348.703 416.926 348.086 417.113 347.555 417.488C347.023 417.863 346.609 418.355 346.312 418.965V428H344.145V415.32H346.195Z" fill="black"/>
<rect x="529.5" y="367.5" width="380" height="103" fill="white" stroke="black"/>
<rect x="473.5" y="523.5" width="491" height="231" fill="#F5F2F2" stroke="black"/>
<path d="M517.309 573V555.938H522.125C523.609 555.938 524.922 556.266 526.062 556.922C527.203 557.578 528.082 558.512 528.699 559.723C529.324 560.934 529.641 562.324 529.648 563.895V564.984C529.648 566.594 529.336 568.004 528.711 569.215C528.094 570.426 527.207 571.355 526.051 572.004C524.902 572.652 523.562 572.984 522.031 573H517.309ZM519.559 557.789V571.16H521.926C523.66 571.16 525.008 570.621 525.969 569.543C526.938 568.465 527.422 566.93 527.422 564.938V563.941C527.422 562.004 526.965 560.5 526.051 559.43C525.145 558.352 523.855 557.805 522.184 557.789H519.559ZM542.223 568.547H535.074L533.469 573H531.148L537.664 555.938H539.633L546.16 573H543.852L542.223 568.547ZM535.754 566.695H541.555L538.648 558.715L535.754 566.695ZM561.57 573H559.309L550.719 559.852V573H548.457V555.938H550.719L559.332 569.145V555.938H561.57V573ZM578.68 573H576.418V565.113H567.816V573H565.566V555.938H567.816V563.273H576.418V555.938H578.68V573ZM593.656 565.395C591.727 564.84 590.32 564.16 589.438 563.355C588.562 562.543 588.125 561.543 588.125 560.355C588.125 559.012 588.66 557.902 589.73 557.027C590.809 556.145 592.207 555.703 593.926 555.703C595.098 555.703 596.141 555.93 597.055 556.383C597.977 556.836 598.688 557.461 599.188 558.258C599.695 559.055 599.949 559.926 599.949 560.871H597.688C597.688 559.84 597.359 559.031 596.703 558.445C596.047 557.852 595.121 557.555 593.926 557.555C592.816 557.555 591.949 557.801 591.324 558.293C590.707 558.777 590.398 559.453 590.398 560.32C590.398 561.016 590.691 561.605 591.277 562.09C591.871 562.566 592.875 563.004 594.289 563.402C595.711 563.801 596.82 564.242 597.617 564.727C598.422 565.203 599.016 565.762 599.398 566.402C599.789 567.043 599.984 567.797 599.984 568.664C599.984 570.047 599.445 571.156 598.367 571.992C597.289 572.82 595.848 573.234 594.043 573.234C592.871 573.234 591.777 573.012 590.762 572.566C589.746 572.113 588.961 571.496 588.406 570.715C587.859 569.934 587.586 569.047 587.586 568.055H589.848C589.848 569.086 590.227 569.902 590.984 570.504C591.75 571.098 592.77 571.395 594.043 571.395C595.23 571.395 596.141 571.152 596.773 570.668C597.406 570.184 597.723 569.523 597.723 568.688C597.723 567.852 597.43 567.207 596.844 566.754C596.258 566.293 595.195 565.84 593.656 565.395ZM612.301 568.547H605.152L603.547 573H601.227L607.742 555.938H609.711L616.238 573H613.93L612.301 568.547ZM605.832 566.695H611.633L608.727 558.715L605.832 566.695ZM609.84 551.367H612.465L609.324 554.812H607.578L609.84 551.367ZM630.945 567.586C630.734 569.391 630.066 570.785 628.941 571.77C627.824 572.746 626.336 573.234 624.477 573.234C622.461 573.234 620.844 572.512 619.625 571.066C618.414 569.621 617.809 567.688 617.809 565.266V563.625C617.809 562.039 618.09 560.645 618.652 559.441C619.223 558.238 620.027 557.316 621.066 556.676C622.105 556.027 623.309 555.703 624.676 555.703C626.488 555.703 627.941 556.211 629.035 557.227C630.129 558.234 630.766 559.633 630.945 561.422H628.684C628.488 560.062 628.062 559.078 627.406 558.469C626.758 557.859 625.848 557.555 624.676 557.555C623.238 557.555 622.109 558.086 621.289 559.148C620.477 560.211 620.07 561.723 620.07 563.684V565.336C620.07 567.188 620.457 568.66 621.23 569.754C622.004 570.848 623.086 571.395 624.477 571.395C625.727 571.395 626.684 571.113 627.348 570.551C628.02 569.98 628.465 568.992 628.684 567.586H630.945ZM647.141 573H644.879V565.113H636.277V573H634.027V555.938H636.277V563.273H644.879V555.938H647.141V573ZM670.203 573H667.941L659.352 559.852V573H657.09V555.938H659.352L667.965 569.145V555.938H670.203V573ZM687.312 573H685.051V565.113H676.449V573H674.199V555.938H676.449V563.273H685.051V555.938H687.312V573ZM700.941 568.547H693.793L692.188 573H689.867L696.383 555.938H698.352L704.879 573H702.57L700.941 568.547ZM694.473 566.695H700.273L697.367 558.715L694.473 566.695ZM700.965 554.578V554.695H699.172L697.414 552.703L695.668 554.695H693.875V554.555L696.758 551.367H698.07L700.965 554.578ZM720.289 573H718.027L709.438 559.852V573H707.176V555.938H709.438L718.051 569.145V555.938H720.289V573ZM735.887 570.012L740.762 555.938H743.223L736.895 573H734.902L728.586 555.938H731.035L735.887 570.012ZM747.934 573H745.684V555.938H747.934V573ZM761.703 565.113H754.309V571.16H762.898V573H752.059V555.938H762.781V557.789H754.309V563.273H761.703V565.113ZM760.883 554.438V554.555H759.09L757.332 552.562L755.586 554.555H753.793V554.414L756.676 551.227H757.988L760.883 554.438ZM778.812 573H776.551L767.961 559.852V573H765.699V555.938H767.961L776.574 569.145V555.938H778.812V573ZM791.012 566.32V573H788.762V555.938H795.055C796.922 555.938 798.383 556.414 799.438 557.367C800.5 558.32 801.031 559.582 801.031 561.152C801.031 562.809 800.512 564.086 799.473 564.984C798.441 565.875 796.961 566.32 795.031 566.32H791.012ZM791.012 564.48H795.055C796.258 564.48 797.18 564.199 797.82 563.637C798.461 563.066 798.781 562.246 798.781 561.176C798.781 560.16 798.461 559.348 797.82 558.738C797.18 558.129 796.301 557.812 795.184 557.789H791.012V564.48ZM817.016 573H814.754V565.113H806.152V573H803.902V555.938H806.152V563.273H814.754V555.938H817.016V573ZM834.137 565.02C834.137 566.691 833.855 568.152 833.293 569.402C832.73 570.645 831.934 571.594 830.902 572.25C829.871 572.906 828.668 573.234 827.293 573.234C825.949 573.234 824.758 572.906 823.719 572.25C822.68 571.586 821.871 570.645 821.293 569.426C820.723 568.199 820.43 566.781 820.414 565.172V563.941C820.414 562.301 820.699 560.852 821.27 559.594C821.84 558.336 822.645 557.375 823.684 556.711C824.73 556.039 825.926 555.703 827.27 555.703C828.637 555.703 829.84 556.035 830.879 556.699C831.926 557.355 832.73 558.312 833.293 559.57C833.855 560.82 834.137 562.277 834.137 563.941V565.02ZM831.898 563.918C831.898 561.895 831.492 560.344 830.68 559.266C829.867 558.18 828.73 557.637 827.27 557.637C825.848 557.637 824.727 558.18 823.906 559.266C823.094 560.344 822.676 561.844 822.652 563.766V565.02C822.652 566.98 823.062 568.523 823.883 569.648C824.711 570.766 825.848 571.324 827.293 571.324C828.746 571.324 829.871 570.797 830.668 569.742C831.465 568.68 831.875 567.16 831.898 565.184V563.918ZM828.547 554.789H826.684L823.66 551.344H826.273L828.547 554.789ZM850.625 573H848.363L839.773 559.852V573H837.512V555.938H839.773L848.387 569.145V555.938H850.625V573ZM867.219 570.762C866.641 571.59 865.832 572.211 864.793 572.625C863.762 573.031 862.559 573.234 861.184 573.234C859.793 573.234 858.559 572.91 857.48 572.262C856.402 571.605 855.566 570.676 854.973 569.473C854.387 568.27 854.086 566.875 854.07 565.289V563.801C854.07 561.23 854.668 559.238 855.863 557.824C857.066 556.41 858.754 555.703 860.926 555.703C862.707 555.703 864.141 556.16 865.227 557.074C866.312 557.98 866.977 559.27 867.219 560.941H864.969C864.547 558.684 863.203 557.555 860.938 557.555C859.43 557.555 858.285 558.086 857.504 559.148C856.73 560.203 856.34 561.734 856.332 563.742V565.137C856.332 567.051 856.77 568.574 857.645 569.707C858.52 570.832 859.703 571.395 861.195 571.395C862.039 571.395 862.777 571.301 863.41 571.113C864.043 570.926 864.566 570.609 864.98 570.164V566.332H861.031V564.504H867.219V570.762ZM876.934 573V555.938H882.512C884.363 555.938 885.754 556.32 886.684 557.086C887.621 557.852 888.09 558.984 888.09 560.484C888.09 561.281 887.863 561.988 887.41 562.605C886.957 563.215 886.34 563.688 885.559 564.023C886.48 564.281 887.207 564.773 887.738 565.5C888.277 566.219 888.547 567.078 888.547 568.078C888.547 569.609 888.051 570.812 887.059 571.688C886.066 572.562 884.664 573 882.852 573H876.934ZM879.184 565.02V571.16H882.898C883.945 571.16 884.77 570.891 885.371 570.352C885.98 569.805 886.285 569.055 886.285 568.102C886.285 566.047 885.168 565.02 882.934 565.02H879.184ZM879.184 563.215H882.582C883.566 563.215 884.352 562.969 884.938 562.477C885.531 561.984 885.828 561.316 885.828 560.473C885.828 559.535 885.555 558.855 885.008 558.434C884.461 558.004 883.629 557.789 882.512 557.789H879.184V563.215ZM901.309 568.547H894.16L892.555 573H890.234L896.75 555.938H898.719L905.246 573H902.938L901.309 568.547ZM894.84 566.695H900.641L897.734 558.715L894.84 566.695ZM920.656 573H918.395L909.805 559.852V573H907.543V555.938H909.805L918.418 569.145V555.938H920.656V573Z" fill="black"/>
<path d="M658.484 421.32V428H656.234V410.938H662.527C664.395 410.938 665.855 411.414 666.91 412.367C667.973 413.32 668.504 414.582 668.504 416.152C668.504 417.809 667.984 419.086 666.945 419.984C665.914 420.875 664.434 421.32 662.504 421.32H658.484ZM658.484 419.48H662.527C663.73 419.48 664.652 419.199 665.293 418.637C665.934 418.066 666.254 417.246 666.254 416.176C666.254 415.16 665.934 414.348 665.293 413.738C664.652 413.129 663.773 412.812 662.656 412.789H658.484V419.48ZM673.203 416.855C674.164 415.676 675.414 415.086 676.953 415.086C679.633 415.086 680.984 416.598 681.008 419.621V428H678.84V419.609C678.832 418.695 678.621 418.02 678.207 417.582C677.801 417.145 677.164 416.926 676.297 416.926C675.594 416.926 674.977 417.113 674.445 417.488C673.914 417.863 673.5 418.355 673.203 418.965V428H671.035V410H673.203V416.855ZM683.68 421.543C683.68 420.301 683.922 419.184 684.406 418.191C684.898 417.199 685.578 416.434 686.445 415.895C687.32 415.355 688.316 415.086 689.434 415.086C691.16 415.086 692.555 415.684 693.617 416.879C694.688 418.074 695.223 419.664 695.223 421.648V421.801C695.223 423.035 694.984 424.145 694.508 425.129C694.039 426.105 693.363 426.867 692.48 427.414C691.605 427.961 690.598 428.234 689.457 428.234C687.738 428.234 686.344 427.637 685.273 426.441C684.211 425.246 683.68 423.664 683.68 421.695V421.543ZM685.859 421.801C685.859 423.207 686.184 424.336 686.832 425.188C687.488 426.039 688.363 426.465 689.457 426.465C690.559 426.465 691.434 426.035 692.082 425.176C692.73 424.309 693.055 423.098 693.055 421.543C693.055 420.152 692.723 419.027 692.059 418.168C691.402 417.301 690.527 416.867 689.434 416.867C688.363 416.867 687.5 417.293 686.844 418.145C686.188 418.996 685.859 420.215 685.859 421.801ZM690.594 413.445H688.73L685.707 410H688.32L690.594 413.445ZM699.992 415.32L700.062 416.914C701.031 415.695 702.297 415.086 703.859 415.086C706.539 415.086 707.891 416.598 707.914 419.621V428H705.746V419.609C705.738 418.695 705.527 418.02 705.113 417.582C704.707 417.145 704.07 416.926 703.203 416.926C702.5 416.926 701.883 417.113 701.352 417.488C700.82 417.863 700.406 418.355 700.109 418.965V428H697.941V415.32H699.992ZM710.668 421.555C710.668 419.578 711.125 418.008 712.039 416.844C712.953 415.672 714.164 415.086 715.672 415.086C717.219 415.086 718.426 415.633 719.293 416.727L719.398 415.32H721.379V427.695C721.379 429.336 720.891 430.629 719.914 431.574C718.945 432.52 717.641 432.992 716 432.992C715.086 432.992 714.191 432.797 713.316 432.406C712.441 432.016 711.773 431.48 711.312 430.801L712.438 429.5C713.367 430.648 714.504 431.223 715.848 431.223C716.902 431.223 717.723 430.926 718.309 430.332C718.902 429.738 719.199 428.902 719.199 427.824V426.734C718.332 427.734 717.148 428.234 715.648 428.234C714.164 428.234 712.961 427.637 712.039 426.441C711.125 425.246 710.668 423.617 710.668 421.555ZM712.848 421.801C712.848 423.23 713.141 424.355 713.727 425.176C714.312 425.988 715.133 426.395 716.188 426.395C717.555 426.395 718.559 425.773 719.199 424.531V418.742C718.535 417.531 717.539 416.926 716.211 416.926C715.156 416.926 714.332 417.336 713.738 418.156C713.145 418.977 712.848 420.191 712.848 421.801ZM741.348 421.801C741.348 423.738 740.902 425.297 740.012 426.477C739.121 427.648 737.926 428.234 736.426 428.234C734.824 428.234 733.586 427.668 732.711 426.535L732.605 428H730.613V410H732.781V416.715C733.656 415.629 734.863 415.086 736.402 415.086C737.941 415.086 739.148 415.668 740.023 416.832C740.906 417.996 741.348 419.59 741.348 421.613V421.801ZM739.18 421.555C739.18 420.078 738.895 418.938 738.324 418.133C737.754 417.328 736.934 416.926 735.863 416.926C734.434 416.926 733.406 417.59 732.781 418.918V424.402C733.445 425.73 734.48 426.395 735.887 426.395C736.926 426.395 737.734 425.992 738.312 425.188C738.891 424.383 739.18 423.172 739.18 421.555ZM751.918 428C751.793 427.75 751.691 427.305 751.613 426.664C750.605 427.711 749.402 428.234 748.004 428.234C746.754 428.234 745.727 427.883 744.922 427.18C744.125 426.469 743.727 425.57 743.727 424.484C743.727 423.164 744.227 422.141 745.227 421.414C746.234 420.68 747.648 420.312 749.469 420.312H751.578V419.316C751.578 418.559 751.352 417.957 750.898 417.512C750.445 417.059 749.777 416.832 748.895 416.832C748.121 416.832 747.473 417.027 746.949 417.418C746.426 417.809 746.164 418.281 746.164 418.836H743.984C743.984 418.203 744.207 417.594 744.652 417.008C745.105 416.414 745.715 415.945 746.48 415.602C747.254 415.258 748.102 415.086 749.023 415.086C750.484 415.086 751.629 415.453 752.457 416.188C753.285 416.914 753.715 417.918 753.746 419.199V425.035C753.746 426.199 753.895 427.125 754.191 427.812V428H751.918ZM748.32 426.348C749 426.348 749.645 426.172 750.254 425.82C750.863 425.469 751.305 425.012 751.578 424.449V421.848H749.879C747.223 421.848 745.895 422.625 745.895 424.18C745.895 424.859 746.121 425.391 746.574 425.773C747.027 426.156 747.609 426.348 748.32 426.348ZM759.195 415.32L759.266 416.914C760.234 415.695 761.5 415.086 763.062 415.086C765.742 415.086 767.094 416.598 767.117 419.621V428H764.949V419.609C764.941 418.695 764.73 418.02 764.316 417.582C763.91 417.145 763.273 416.926 762.406 416.926C761.703 416.926 761.086 417.113 760.555 417.488C760.023 417.863 759.609 418.355 759.312 418.965V428H757.145V415.32H759.195Z" fill="black"/>
<path d="M263.23 166.32V173H260.98V155.938H267.273C269.141 155.938 270.602 156.414 271.656 157.367C272.719 158.32 273.25 159.582 273.25 161.152C273.25 162.809 272.73 164.086 271.691 164.984C270.66 165.875 269.18 166.32 267.25 166.32H263.23ZM263.23 164.48H267.273C268.477 164.48 269.398 164.199 270.039 163.637C270.68 163.066 271 162.246 271 161.176C271 160.16 270.68 159.348 270.039 158.738C269.398 158.129 268.52 157.812 267.402 157.789H263.23V164.48ZM277.949 161.855C278.91 160.676 280.16 160.086 281.699 160.086C284.379 160.086 285.73 161.598 285.754 164.621V173H283.586V164.609C283.578 163.695 283.367 163.02 282.953 162.582C282.547 162.145 281.91 161.926 281.043 161.926C280.34 161.926 279.723 162.113 279.191 162.488C278.66 162.863 278.246 163.355 277.949 163.965V173H275.781V155H277.949V161.855ZM288.426 166.543C288.426 165.301 288.668 164.184 289.152 163.191C289.645 162.199 290.324 161.434 291.191 160.895C292.066 160.355 293.062 160.086 294.18 160.086C295.906 160.086 297.301 160.684 298.363 161.879C299.434 163.074 299.969 164.664 299.969 166.648V166.801C299.969 168.035 299.73 169.145 299.254 170.129C298.785 171.105 298.109 171.867 297.227 172.414C296.352 172.961 295.344 173.234 294.203 173.234C292.484 173.234 291.09 172.637 290.02 171.441C288.957 170.246 288.426 168.664 288.426 166.695V166.543ZM290.605 166.801C290.605 168.207 290.93 169.336 291.578 170.188C292.234 171.039 293.109 171.465 294.203 171.465C295.305 171.465 296.18 171.035 296.828 170.176C297.477 169.309 297.801 168.098 297.801 166.543C297.801 165.152 297.469 164.027 296.805 163.168C296.148 162.301 295.273 161.867 294.18 161.867C293.109 161.867 292.246 162.293 291.59 163.145C290.934 163.996 290.605 165.215 290.605 166.801ZM295.34 158.445H293.477L290.453 155H293.066L295.34 158.445ZM304.738 160.32L304.809 161.914C305.777 160.695 307.043 160.086 308.605 160.086C311.285 160.086 312.637 161.598 312.66 164.621V173H310.492V164.609C310.484 163.695 310.273 163.02 309.859 162.582C309.453 162.145 308.816 161.926 307.949 161.926C307.246 161.926 306.629 162.113 306.098 162.488C305.566 162.863 305.152 163.355 304.855 163.965V173H302.688V160.32H304.738ZM315.414 166.555C315.414 164.578 315.871 163.008 316.785 161.844C317.699 160.672 318.91 160.086 320.418 160.086C321.965 160.086 323.172 160.633 324.039 161.727L324.145 160.32H326.125V172.695C326.125 174.336 325.637 175.629 324.66 176.574C323.691 177.52 322.387 177.992 320.746 177.992C319.832 177.992 318.938 177.797 318.062 177.406C317.188 177.016 316.52 176.48 316.059 175.801L317.184 174.5C318.113 175.648 319.25 176.223 320.594 176.223C321.648 176.223 322.469 175.926 323.055 175.332C323.648 174.738 323.945 173.902 323.945 172.824V171.734C323.078 172.734 321.895 173.234 320.395 173.234C318.91 173.234 317.707 172.637 316.785 171.441C315.871 170.246 315.414 168.617 315.414 166.555ZM317.594 166.801C317.594 168.23 317.887 169.355 318.473 170.176C319.059 170.988 319.879 171.395 320.934 171.395C322.301 171.395 323.305 170.773 323.945 169.531V163.742C323.281 162.531 322.285 161.926 320.957 161.926C319.902 161.926 319.078 162.336 318.484 163.156C317.891 163.977 317.594 165.191 317.594 166.801ZM346.094 166.801C346.094 168.738 345.648 170.297 344.758 171.477C343.867 172.648 342.672 173.234 341.172 173.234C339.57 173.234 338.332 172.668 337.457 171.535L337.352 173H335.359V155H337.527V161.715C338.402 160.629 339.609 160.086 341.148 160.086C342.688 160.086 343.895 160.668 344.77 161.832C345.652 162.996 346.094 164.59 346.094 166.613V166.801ZM343.926 166.555C343.926 165.078 343.641 163.938 343.07 163.133C342.5 162.328 341.68 161.926 340.609 161.926C339.18 161.926 338.152 162.59 337.527 163.918V169.402C338.191 170.73 339.227 171.395 340.633 171.395C341.672 171.395 342.48 170.992 343.059 170.188C343.637 169.383 343.926 168.172 343.926 166.555ZM356.664 173C356.539 172.75 356.438 172.305 356.359 171.664C355.352 172.711 354.148 173.234 352.75 173.234C351.5 173.234 350.473 172.883 349.668 172.18C348.871 171.469 348.473 170.57 348.473 169.484C348.473 168.164 348.973 167.141 349.973 166.414C350.98 165.68 352.395 165.312 354.215 165.312H356.324V164.316C356.324 163.559 356.098 162.957 355.645 162.512C355.191 162.059 354.523 161.832 353.641 161.832C352.867 161.832 352.219 162.027 351.695 162.418C351.172 162.809 350.91 163.281 350.91 163.836H348.73C348.73 163.203 348.953 162.594 349.398 162.008C349.852 161.414 350.461 160.945 351.227 160.602C352 160.258 352.848 160.086 353.77 160.086C355.23 160.086 356.375 160.453 357.203 161.188C358.031 161.914 358.461 162.918 358.492 164.199V170.035C358.492 171.199 358.641 172.125 358.938 172.812V173H356.664ZM353.066 171.348C353.746 171.348 354.391 171.172 355 170.82C355.609 170.469 356.051 170.012 356.324 169.449V166.848H354.625C351.969 166.848 350.641 167.625 350.641 169.18C350.641 169.859 350.867 170.391 351.32 170.773C351.773 171.156 352.355 171.348 353.066 171.348ZM363.941 160.32L364.012 161.914C364.98 160.695 366.246 160.086 367.809 160.086C370.488 160.086 371.84 161.598 371.863 164.621V173H369.695V164.609C369.688 163.695 369.477 163.02 369.062 162.582C368.656 162.145 368.02 161.926 367.152 161.926C366.449 161.926 365.832 162.113 365.301 162.488C364.77 162.863 364.355 163.355 364.059 163.965V173H361.891V160.32H363.941Z" fill="white"/>
</g>
<defs>
<filter id="filter0_d" x="240" y="133" width="153" height="71" filterUnits="userSpaceOnUse" color-interpolation-filters="sRGB">
<feFlood flood-opacity="0" result="BackgroundImageFix"/>
<feColorMatrix in="SourceAlpha" type="matrix" values="0 0 0 0 0 0 0 0 0 0 0 0 0 0 0 0 0 0 127 0" result="hardAlpha"/>
<feOffset dy="4"/>
<feGaussianBlur stdDeviation="2"/>
<feComposite in2="hardAlpha" operator="out"/>
<feColorMatrix type="matrix" values="0 0 0 0 0 0 0 0 0 0 0 0 0 0 0 0 0 0 0.25 0"/>
<feBlend mode="normal" in2="BackgroundImageFix" result="effect1_dropShadow"/>
<feBlend mode="normal" in="SourceGraphic" in2="effect1_dropShadow" result="shape"/>
</filter>
<clipPath id="clip0">
<rect width="1440" height="1024" fill="white"/>
</clipPath>
</defs>
</svg>
